<svg id="Layer_1" data-name="Layer 1" xmlns="http://www.w3.org/2000/svg" viewBox="0 0 1535 1719.19"><defs><style>.cls-1{fill:red;}.cls-2{fill:#fff;}.cls-3{fill:none;stroke:#000;stroke-miterlimit:10;stroke-width:8.71px;}</style></defs><title>normal</title><path d="M840.25,1693.37c-4.75-11.27-7.07-23.26-8.14-35.6-1.57-18.27.55-36.22,3.67-54.18,1.49-8.57,1.85-17.33,2.94-26,0.62-4.91,1.72-9.75,2.54-14.63,1.65-9.8,2.95-19.68,5-29.4,1.67-8,4.36-15.79,6.27-23.76,4-16.72,10.43-32.59,16.66-48.54a37.59,37.59,0,0,1,3.22-5.9c8.3-13.51,17-26.71,26.56-39.42,4.88-6.53,9.15-13.53,13.51-20.43a261.38,261.38,0,0,1,22.85-31c13.46-15.62,27.44-30.84,40.3-46.94,12.19-15.27,24.9-30.19,33-48.47,3.83-8.62,8-17.06,11-26a11.88,11.88,0,0,0,.79-2.09c1.47-12.53,3.64-25,4.13-37.6s-4-24.48-9.5-35.75a133,133,0,0,0-25.78-36.2c-3.49-3.45-7-7-11.09-9.65a17.62,17.62,0,0,0-9.19-2.51,156.83,156.83,0,0,0-42.84,5.85,143,143,0,0,0-51.68,27c-12.24,9.87-23.5,21-31.2,34.81-3.83,6.87-5.74,14.85-8.12,22.46-1.32,4.25-1.84,8.77-2.68,13.17-1.77,9.25-6.55,11.71-15.45,8.47a42,42,0,0,0-11.57-2.37c-5.62-.36-9-3.89-12.24-7.61q-8.3-9.59-16.07-19.6c-2.27-2.9-5-6-5.71-9.41-1.27-6.49-6.34-10.61-8.68-16.34-0.75-1.82-3-3.13-4.85-4.36-23.6-16.11-50.45-24.32-77.65-31.55-11-2.93-22.28-5-33.43-7.42-8.57-1.86-17-1.09-25.71,0-21.76,2.65-38.56,13.75-53.42,28.78-5.75,5.81-11.78,11.43-16.86,17.8-3.48,4.38-5.88,9.75-8.16,15-3.35,7.64-6.49,15.41-9.13,23.32a254.57,254.57,0,0,0-6.94,24.83c-3.15,14.12-5.87,28.33-8.6,42.53-0.61,3.16-.41,6.46-0.76,9.68-1.15,10.63-2.84,21.22-3.44,31.88a131.75,131.75,0,0,0,.82,24.56c2.43,18.29,6.29,36.42,12.71,53.69,6.32,17,12.92,34,22.66,49.52,5.68,9,11,18.25,16.79,27.23,8.73,13.68,21.13,23,36.24,28.37,7.64,2.72,15.72,4.31,23.71,5.85a111,111,0,0,1,31.45,11.42c3.94,2.1,8,3.94,11.89,6.18,3.42,2,6.6,4.38,9.9,6.56,2.07,1.37,4.13,2.75,6.26,4q9,5.33,18,10.56c4,2.36,8.14,4.66,12.2,7,19.6,11.36,36.79,26,54.38,40.07,3.07,2.45,5.53,5.65,8.31,8.47,11.66,11.85,24.21,22.9,33.7,36.72,2.38,3.47,4.35,7.23,6.5,10.85,3.69,6.21,7.49,12.35,11,18.66,1,1.82,1.82,4.27,1.47,6.21-0.4,2.2-.79,4-1.23,5.55-2.13,7.46-5.13,7.26-13.18,5.68-6.77-1.33-13.58-2.52-20.38-3.73a12.61,12.61,0,0,1-10.15-9c-5.57-16.85-16.35-29.72-29.29-41.54-9.35-8.55-18.13-17.76-28.43-25.17-10.82-7.8-21-16.43-33.06-22.64-9.43-4.87-18-11.43-26.94-17.21-1.46-.94-3-1.74-4.53-2.58-5.87-3.28-12-6.21-17.55-9.91a82.05,82.05,0,0,0-20.68-9.76c-7.35-2.35-14.45-5.74-21.94-7.33-11-2.33-21.11-7.25-31.56-11-14.84-5.37-25.93-16.24-36.4-27.76-7.39-8.12-13.28-17.29-19-26.53-6-9.7-10.84-20.1-16.41-30.07-6-10.7-10.24-22.08-13.82-33.73-4.95-16.14-10.64-32.15-14.22-48.61-3.88-17.77-6-35.93-1.37-54.17,1.47-5.76,1.47-11.87,2.45-17.77,2.44-14.74,5-29.46,7.61-44.18,1.68-9.55,3.3-19.13,5.27-28.63a71.1,71.1,0,0,1,4.09-13.58c6-13.92,12-27.87,18.73-41.45,2.48-5,6.61-9.36,10.56-13.45,9-9.32,18.08-18.58,27.63-27.31a83.05,83.05,0,0,1,30.19-17.35c6.33-2.1,12.48-4.9,18.92-6.54,19.37-4.94,38.93-6,58.42-.71,15.5,4.18,31,8.48,46.25,13.41,9.23,3,18,7.23,27,10.93,4.34,1.78,8.62,3.75,13,5.37,12.93,4.75,22.85,13.72,32.64,22.92,1.17,1.1,2.83,2.41,4.25,2.4,9.39-.08,14.71,5,17.78,13.26,0.34,0.91.9,1.75,1.86,3.59,2.54-3,4.22-4.7,5.56-6.64,2.28-3.27,4.3-6.72,6.51-10,4-6,7.83-11.65,14.68-15.35,5-2.69,8-8.79,12.65-12.38,10.37-8,21-15.7,32-22.8,5.15-3.33,11.31-5.2,17.17-7.32,10.73-3.88,21.42-8,32.42-11,14.12-3.8,28.63-3.58,43.12-1.83,4.19,0.51,8.43.46,12.64,0.78a19,19,0,0,1,4.27.88c10.32,3.27,20.11,7.84,28.39,14.75,6.81,5.7,12.9,12.32,18.94,18.88a221.45,221.45,0,0,1,15.11,18.24,48,48,0,0,1,6.62,12.33c2.86,8.17,7,15.76,9.92,24,3.48,9.86,4.47,19.88,6.44,29.83,2.1,10.65,1.3,21.41-.45,32-1.45,8.82-2.48,17.87-5.38,26.24-3.07,8.85-7.86,17.16-12.39,25.44-4.88,8.91-10,17.71-15.61,26.2a88.79,88.79,0,0,1-12.94,16.15c-5.85,5.48-9.74,12.29-14.81,18.23-2.35,2.76-6.06,4.33-8.51,7-4.68,5.11-8.89,10.64-13.3,16-5.21,6.31-10.54,12.51-15.58,18.94-2.3,2.92-3.87,6.41-6.08,9.42-8.78,12-16.89,24.38-25.14,36.71-7.18,10.72-14.72,21.2-22.11,31.79a9.61,9.61,0,0,0-1.27,1.84c-7,18.23-15.08,36.06-18.6,55.53-2.56,14.18-7.06,28-9.37,42.24-3.47,21.39-6.2,42.93-8.42,64.49-1.17,11.36-1,22.9-.64,34.33,0.18,5.89,1.66,11.84,3.3,17.54,2.09,7.27,5.69,13.18,14.81,13.22,4.44,0,6.26,6.35,3.24,10.42-8.17,11-17.61,11.5-28.28,7-2-.86-4.14-2.23-6.23-2.29-8.88-.24-13.26-6.34-16.88-12.94A86.85,86.85,0,0,1,840.25,1693.37Z"/><path class="cls-1" d="M1015.07,1167.68c5.54,11.27,10,23.11,9.5,35.75s-2.66,25.07-4.13,37.6a11.88,11.88,0,0,1-.79,2.09c-3,9-7.21,17.39-11,26-8.11,18.28-20.82,33.2-33,48.47-12.86,16.1-26.84,31.32-40.3,46.94a261.38,261.38,0,0,0-22.85,31c-4.36,6.9-8.63,13.9-13.51,20.43-9.51,12.71-18.26,25.91-26.56,39.42a37.59,37.59,0,0,0-3.22,5.9c-6.23,15.95-12.65,31.82-16.66,48.54-1.91,8-4.6,15.75-6.27,23.76-2,9.72-3.32,19.6-5,29.4-0.82,4.88-1.92,9.72-2.54,14.63-1.09,8.64-1.45,17.4-2.94,26-3.12,18-5.24,35.91-3.67,54.18,1.07,12.34,3.39,24.33,8.14,35.6q-5-2.73-9.71-5.73c0.44-1.52.83-3.35,1.23-5.55,0.35-1.94-.47-4.39-1.47-6.21-3.49-6.31-7.29-12.45-11-18.66-2.15-3.62-4.12-7.38-6.5-10.85-9.49-13.82-22-24.87-33.7-36.72-2.78-2.82-5.24-6-8.31-8.47-17.59-14.08-34.78-28.71-54.38-40.07-4.06-2.35-8.15-4.65-12.2-7q-9-5.25-18-10.56c-2.13-1.26-4.19-2.64-6.26-4-3.3-2.18-6.48-4.57-9.9-6.56-3.86-2.24-8-4.08-11.89-6.18a111,111,0,0,0-31.45-11.42c-8-1.54-16.07-3.13-23.71-5.85-15.11-5.37-27.51-14.69-36.24-28.37-5.74-9-11.11-18.2-16.79-27.23-9.74-15.51-16.34-32.53-22.66-49.52-6.42-17.27-10.28-35.4-12.71-53.69a131.75,131.75,0,0,1-.82-24.56c0.6-10.66,2.29-21.25,3.44-31.88,0.35-3.22.15-6.52,0.76-9.68,2.73-14.2,5.45-28.41,8.6-42.53a254.57,254.57,0,0,1,6.94-24.83c2.64-7.91,5.78-15.68,9.13-23.32,2.28-5.2,4.68-10.57,8.16-15,5.08-6.37,11.11-12,16.86-17.8,14.86-15,31.66-26.13,53.42-28.78,8.71-1.06,17.14-1.83,25.71,0,11.15,2.43,22.41,4.49,33.43,7.42,27.2,7.23,54,15.44,77.65,31.55,1.8,1.23,4.1,2.54,4.85,4.36,2.34,5.73,7.41,9.85,8.68,16.34,0.66,3.38,3.44,6.51,5.71,9.41q7.8,10,16.07,19.6c3.22,3.72,6.62,7.25,12.24,7.61a42,42,0,0,1,11.57,2.37c8.9,3.24,13.68.78,15.45-8.47,0.84-4.4,1.36-8.92,2.68-13.17,2.38-7.61,4.29-15.59,8.12-22.46,7.7-13.83,19-24.94,31.2-34.81a143,143,0,0,1,51.68-27,156.83,156.83,0,0,1,42.84-5.85,17.62,17.62,0,0,1,9.19,2.51c4.06,2.67,7.6,6.2,11.09,9.65A133,133,0,0,1,1015.07,1167.68ZM910.24,1337c2.19-13.36.49-26.65-6.17-39-7.31-13.54-16.4-25.43-30-33.09-8-4.49-16.48-8.08-24.53-12.47-17.65-9.64-36.4-8.08-54.57-3.76-11.87,2.82-23.22,8.83-34,14.86-5.27,2.94-9.09,2.72-13.74.49a39.93,39.93,0,0,1-4.6-2.48,171,171,0,0,0-44.06-20.81,63.7,63.7,0,0,0-20.6-2.63c-8.27.25-16,7.32-17.81,15.4-0.48,2.13-.93,4.62-2.29,6.14-3.57,4-7.7,7.5-11.49,11.31-2.26,2.27-4.79,4.48-6.33,7.2-6.23,11-10.6,22.55-9.14,33.31-0.08,13.78,1,25.08,7.26,35.16a72.47,72.47,0,0,0,7.43,9.3c8.85,10.07,18.26,19.22,30.87,24.93,11.44,5.19,23.51,7.78,35.39,11.31,13.16,3.91,26.18,1.78,38.19-2,11.51-3.62,23.15-9.19,31-19.68,2.06-2.76,5-3.77,8.54-3.52,11.88,0.84,23.77,1.55,35.66,2.06,3.92,0.17,7.87-.56,11.82-0.67,3.41-.1,6.83.08,10.24,0.18,1.21,0,2.5.55,3.6,0.26,8.62-2.21,17.21-4.54,25.8-6.89,5-1.36,10.09-2.5,14.92-4.32C901.26,1354,908.59,1347.13,910.24,1337ZM843,1471.77c0.67-3.62,1.48-7.21,2.24-10.85-4.22-5.41-4.24-5.36-11-7.35-1.38-.4-2.54-1.52-3.9-2a24.44,24.44,0,0,0-6.36-1.81c-9.11-.64-18.27-2.5-27.3.76-1.12.4-2.48,0.11-3.72,0.2-13.59,1-27.23-.63-40.81,2.9-11,2.86-22.31,4.72-32.51,9.89-4.34,2.19-8.2,5.67-11.66,9.18a8.79,8.79,0,0,0-1.18,10.52,124.38,124.38,0,0,0,8.71,13.67c0.87,1.23,2.86,1.66,5.19,2.91,1.89-5.64,6-4.65,10.39-4.45,4.08,0.19,8.79-.23,12.24-2.15a55.34,55.34,0,0,1,16.69-5.9c10.5-2,21.17-3,31.7-4.81,14-2.39,27.8-5.55,42.2-3.36C839.81,1480,841.92,1477.68,843,1471.77Z"/><path d="M904.07,1298.05c6.66,12.33,8.36,25.62,6.17,39-1.65,10.1-9,17-18.63,20.62-4.83,1.82-9.93,3-14.92,4.32-8.59,2.35-17.18,4.68-25.8,6.89-1.1.29-2.39-.22-3.6-0.26-3.41-.1-6.83-0.28-10.24-0.18-3.95.11-7.9,0.84-11.82,0.67-11.89-.51-23.78-1.22-35.66-2.06-3.59-.25-6.48.76-8.54,3.52-7.84,10.49-19.48,16.06-31,19.68-12,3.77-25,5.9-38.19,2-11.88-3.53-24-6.12-35.39-11.31-12.61-5.71-22-14.86-30.87-24.93a72.47,72.47,0,0,1-7.43-9.3c-6.26-10.08-7.34-21.38-7.26-35.16-1.46-10.76,2.91-22.32,9.14-33.31,1.54-2.72,4.07-4.93,6.33-7.2,3.79-3.81,7.92-7.31,11.49-11.31,1.36-1.52,1.81-4,2.29-6.14,1.82-8.08,9.54-15.15,17.81-15.4a63.7,63.7,0,0,1,20.6,2.63,171,171,0,0,1,44.06,20.81,39.93,39.93,0,0,0,4.6,2.48c4.65,2.23,8.47,2.45,13.74-.49,10.77-6,22.12-12,34-14.86,18.17-4.32,36.92-5.88,54.57,3.76,8,4.39,16.54,8,24.53,12.47C887.67,1272.62,896.76,1284.51,904.07,1298.05Zm-30.22,26.47c0.83-3.56,1.59-7.39,1.14-11-1.36-10.79-5-20.7-14.06-27.58-7.31-5.54-14.46-11.66-24.26-12.08a73.23,73.23,0,0,0-39.35,9c-2.83,1.58-4.88,4.56-7.16,6.77l9.34,13.36c6.11,0.54,11.45.9,16.75,1.52,4.65,0.55,9.24,1.82,13.88,2a25.85,25.85,0,0,1,16.16,6.6c6.41,5.43,10.4,12.44,13,21.17,4.07-1.91,7.75-3.34,11.08-5.34A8,8,0,0,0,873.85,1324.52Zm-107.77-8.44c0-7.6-.33-8-8.75-8.67,0.52,5.22.78,9.88,1.51,14.47s-3.06,9.46.54,14.14C763.58,1331.71,766.05,1324.13,766.08,1316.08Zm-34.48-26c2.23,1.37,4.46,2.51,8.77.86-15.86-8-29-17.81-44.77-24-1.3,5.7-4.85,8-9.25,10.4-12.34,6.64-18.54,17.73-19.53,31.54a73.43,73.43,0,0,0,.71,16.36c0.65,4.28,1.6,9.17,4.16,12.39,1.39,1.75,2.77,3.52,4.17,5.27q1.26,1.57,2.55,3.12a77.5,77.5,0,0,0,9.26,9.55c1,0.85,2.05,1.67,3.12,2.43h0a37.32,37.32,0,0,0,13.39,6.1l0.12,0.23,0.4,0c0.19,0.16.38,0.34,0.58,0.5h0a4.35,4.35,0,0,0,.41.34c1.34,1,3,1.6,6.28-.14l-7.26-.7-0.24-.22-0.31-.08a29.6,29.6,0,0,0-2.64-4.67c-4.78-6-8.4-12.43-8.08-20.31,0.21-5.38-1.31-11.15,2.33-16,5.4-7.2,11.85-12.19,22.07-9.32a41.69,41.69,0,0,0-6-7.44c-2.5-2.45-2.64-4.75-1.25-8,1.67-4,5.52-4.77,8.14-7.23C722.87,1287.22,727.06,1287.28,731.6,1290.06Z"/><path class="cls-2" d="M875,1313.57c0.45,3.56-.31,7.39-1.14,11a8,8,0,0,1-3.48,4.53c-3.33,2-7,3.43-11.08,5.34-2.6-8.73-6.59-15.74-13-21.17a25.85,25.85,0,0,0-16.16-6.6c-4.64-.19-9.23-1.46-13.88-2-5.3-.62-10.64-1-16.75-1.52l-9.34-13.36c2.28-2.21,4.33-5.19,7.16-6.77a73.23,73.23,0,0,1,39.35-9c9.8,0.42,17,6.54,24.26,12.08C870,1292.87,873.63,1302.78,875,1313.57Z"/><path d="M845.27,1460.92c-0.76,3.64-1.57,7.23-2.24,10.85-1.11,5.91-3.22,8.22-9.08,7.33-14.4-2.19-28.22,1-42.2,3.36-10.53,1.81-21.2,2.82-31.7,4.81a55.34,55.34,0,0,0-16.69,5.9c-3.45,1.92-8.16,2.34-12.24,2.15-4.39-.2-8.5-1.19-10.39,4.45-2.33-1.25-4.32-1.68-5.19-2.91a124.38,124.38,0,0,1-8.71-13.67,8.79,8.79,0,0,1,1.18-10.52c3.46-3.51,7.32-7,11.66-9.18,10.2-5.17,21.5-7,32.51-9.89,13.58-3.53,27.22-1.91,40.81-2.9,1.24-.09,2.6.2,3.72-0.2,9-3.26,18.19-1.4,27.3-.76a24.44,24.44,0,0,1,6.36,1.81c1.36,0.5,2.52,1.62,3.9,2C841,1455.56,841.05,1455.51,845.27,1460.92Z"/><path class="cls-2" d="M757.33,1307.41c8.42,0.7,8.79,1.07,8.75,8.67,0,8-2.5,15.63-6.7,19.94-3.6-4.68.19-9.54-.54-14.14S757.85,1312.63,757.33,1307.41Z"/><path class="cls-2" d="M740.37,1290.92c-4.31,1.65-6.54.51-8.77-.86-4.54-2.78-8.73-2.84-12.88,1.06-2.62,2.46-6.47,3.28-8.14,7.23-1.39,3.27-1.25,5.57,1.25,8a41.69,41.69,0,0,1,6,7.44c-10.22-2.87-16.67,2.12-22.07,9.32-3.64,4.83-2.12,10.6-2.33,16-0.32,7.88,3.3,14.34,8.08,20.31a29.6,29.6,0,0,1,2.64,4.67A37.32,37.32,0,0,1,690.8,1358h0c-1.08-.78-2.11-1.59-3.12-2.43a77.5,77.5,0,0,1-9.26-9.55q-1.29-1.54-2.55-3.12c-1.4-1.75-2.78-3.52-4.17-5.27-2.56-3.22-3.51-8.11-4.16-12.39a73.43,73.43,0,0,1-.71-16.36c1-13.81,7.19-24.9,19.53-31.54,4.4-2.37,7.95-4.7,9.25-10.4C711.35,1273.11,724.51,1282.88,740.37,1290.92Z"/><path class="cls-2" d="M712,1365.09c-3.26,1.74-4.94,1.16-6.28.14l-0.41-.34h0l-0.56-.5Z"/><path class="cls-2" d="M705.3,1364.89l0.41,0.34A4.35,4.35,0,0,1,705.3,1364.89Z"/><path class="cls-2" d="M704.73,1364.39l0.56,0.5c-0.2-.16-0.39-0.34-0.58-0.5h0Z"/><path d="M704.73,1364.39h0l-0.23-.21h0l-0.28-.07a0,0,0,0,1,0,0l0.31,0.08Z"/><path class="cls-2" d="M704.71,1364.39l-0.4,0,0.16-.16h0Z"/><path class="cls-2" d="M704.47,1364.19l-0.16.16-0.12-.23Z"/><path class="cls-2" d="M704.18,1364.09a0,0,0,0,0,0,0,37.32,37.32,0,0,1-13.39-6.1A37.32,37.32,0,0,0,704.18,1364.09Z"/><path class="cls-2" d="M687.67,1355.59c1,0.84,2,1.65,3.12,2.43C689.72,1357.26,688.68,1356.44,687.67,1355.59Z"/><path class="cls-2" d="M675.86,1342.92q1.26,1.57,2.55,3.12Q677.12,1344.5,675.86,1342.92Z"/><path class="cls-3" d="M802.8,1665.23a152.33,152.33,0,0,0,27.74,22.41q4.71,3,9.71,5.73a180.73,180.73,0,0,0,22.63,10.36"/></svg>