<svg id="Layer_1" data-name="Layer 1" xmlns="http://www.w3.org/2000/svg" viewBox="0 0 1535 1719.19"><defs><style>.cls-1{fill:#f7931e;}.cls-2{fill:red;}.cls-3{fill:#fff;}</style></defs><title>onfire</title><path class="cls-1" d="M1059.52,838.07c38.52,87.26,49.87,178,7.13,266.94-15,31.32-41.49,57.42-64.19,84.7-26.45,32-54.92,62.29-81.61,94.15A125.57,125.57,0,0,0,901.53,1317c-11.35,28,1.66,46.18,31.74,41.49,19-2.91,36.85-13,55.16-20.15,7.79-3.09,15.39-6.78,28.47-12.6-26.39,56.76-71,81.73-120.42,100.87-10,3.86-20,7.37-30.08,11.06H783.18c-48.38-16.41-99.68-27-144.5-50.35-91.77-47.67-168-117.93-224-203.58-74.83-114.78-83.21-234.49,4.16-351.29,28.65-38.22,51.83-80.6,83.75-119.89-6.36,27-11.59,54.27-19.32,80.78-9.39,32.16-24,62.83-11,97.78,19.14,51.53,64.13,63.12,105.09,26.15,34.3-31,43.93-71.21,35.72-113.71-13.2-67.82-33.88-134.27-45.65-202.33-7-40.42-9.45-83.93-2-123.81,6.36-34.24,26.93-67,46.36-97.12,13.08-20.21,34.42-35.37,53.38-51.24C732,273.1,778.49,207.42,768.62,107.45c31.86,41.25,24,81.79,17.18,118.64-9.39,51.24-26.27,101.11-41,151.27-16.7,56.76-29,113.41-7.67,171.66,9.51,26,17.3,61.64,46.6,62.71,23.18,0.77,51.71-18.13,69.78-36.32,38.75-38.93,47.08-89.87,39.23-143.37-2.2-15.34-5.53-30.55-5.94-46.54,38.4,37.74,56.47,84.58,61.88,136.59,8,77-4.1,149.79-46.9,216.18C870.44,786.84,857,839.38,873.17,896.74c10.7,38.1,36.73,63.36,65.44,64.31,30.37,1,62.23-26.21,74.12-63.18,12-37.27,10.1-73.59-10.16-108.65,2.62-1.72,5.29-3.45,8-5.17C1027.24,801.88,1050.24,817,1059.52,838.07ZM980.94,1174c76.74-72,95-158.64,77.09-257.49-3-16.58-7.13-33-10.76-49.45-6.84,7-7.19,12.78-8.14,18.49-9.75,58-48.8,98.07-97.18,100.1-47.08,2-84.76-33.76-97.54-94.63-13.2-62.77,4.1-119.06,38.22-171.9,42.14-65.32,56.59-150.56,37.86-214-0.83.42-2.2,0.59-2.38,1.19-1.78,5.53-3.39,11.12-5,16.7-12.84,46.07-39.65,81.61-80.9,105.56C790,653,756.38,645,731.41,603.17,699.14,549,689.33,490,704,428.83c11.12-46.54,26.87-92,40.18-136.71-26.63,24.73-52.66,52.07-81.85,75.31-55,43.87-81.55,100.69-73.17,169.1,8.08,65.44,26,129.58,36.2,194.84,6.6,42.56,11.77,86.42,9,129.16C630.6,917.31,575,965.27,525.16,962.78c-47.37-2.38-78-41.73-82.44-105.8l-9.81-4.46C418.76,886.34,399,919,391.6,954.28c-16.7,79.23.24,156,48,220,86.31,115.85,190.21,209.82,341.72,231,45.05,6.3,89.69,7.31,131.72-18.66-47-29.18-55.34-53-25.44-98.13C914.72,1247.55,945.27,1207.43,980.94,1174Z"/><path class="cls-1" d="M1058,916.47c18,98.85-.36,185.45-77.09,257.49-35.66,33.46-66.22,73.59-93.32,114.54-29.9,45.11-21.58,68.95,25.44,98.13-42,26-86.66,25-131.72,18.66-151.51-21.16-255.41-115.13-341.72-231-47.79-64.08-64.73-140.81-48-220C399,919,418.76,886.34,432.91,852.52l9.81,4.46c4.4,64.08,35.07,103.42,82.44,105.8,49.81,2.5,105.45-45.47,109.13-102.24,2.79-42.74-2.38-86.6-9-129.16-10.16-65.26-28.11-129.4-36.2-194.84-8.38-68.41,18.13-125.24,73.17-169.1,29.18-23.24,55.22-50.58,81.85-75.31-13.31,44.7-29.07,90.17-40.18,136.71C689.33,490,699.14,549,731.41,603.17,756.38,645,790,653,832.22,628.49c41.25-24,68.06-59.5,80.9-105.56,1.6-5.59,3.21-11.17,5-16.7,0.18-.59,1.55-0.77,2.38-1.19,18.72,63.48,4.28,148.72-37.86,214-34.12,52.84-51.41,109.13-38.22,171.9,12.78,60.87,50.46,96.59,97.54,94.63,48.38-2,87.44-42.14,97.18-100.1,1-5.71,1.31-11.53,8.14-18.49C1050.9,883.49,1055,899.89,1058,916.47Z"/><path d="M1305.28,1254.91a100.64,100.64,0,0,0-15.91-16.47c-6.13-4.89-13.36-8.41-20.6-12.84,0.84-5,2-10.62,2.67-16.28,1.75-15.44-.26-30-12.17-41.29-6.71-6.38-14.37-11.43-24-12.21-6.6-.54-13.22-0.88-20.43-1.35-0.59-4.3-.77-8.82-1.91-13.08-1.72-6.43-3.12-13.25-6.42-18.88a46.85,46.85,0,0,0-28-21.74c-10.5-3.11-20.93-5.48-32-6.17-10.4-.65-20.24-1-29.85,3.42-0.54.25-1.38-.19-2.86-0.43,0.83-3.46,2.42-6.8,2.16-10s-2.36-6.2-3.83-9.71c1.29-.16,2.55-0.64,3.63-0.39,6.76,1.58,13.51,3.2,20.2,5,12,3.27,24.13,5.68,36.63,5.82,11.2,0.12,22.42.71,33.6,0.34,6.14-.2,12.87-0.62,18.22-3.23,17.73-8.68,18.17-29,5.89-42.81-4.3-4.84-10.52-8.2-16.33-11.37-3.52-1.92-6-4-7.53-7.69-3.31-8.1-10.37-12-18.1-14.34a118.89,118.89,0,0,0-36.63-5.4c-1.43,0-2.87-1.09-5.51-2.16,4.85-4.18,8.53-7.89,12.73-10.87,9.66-6.84,12.29-17.15,12.13-27.61-0.15-10.09-1.07-20.48-5.17-30.11a13.76,13.76,0,0,1-.59-3.19c0.8-.05,1.6-0.09,2.39-0.12a98.3,98.3,0,0,1-11.79-25.46c-1.58-2.06-3.17-4.15-4.88-6.12-2.1-2.41-4-5.67-6.77-6.71-8.53-3.27-15.78-9.46-25.12-10.81-5.16-.75-10.27-2.58-15.41-2.59-9.86,0-14.6-.67-17.81,12.55-1.62,6.69-1.77,13.79-2.15,20.73-0.7,12.7-.59,25.47-1.75,38.12-1,10.85-3.05,21.62-5.11,32.34-0.81,4.2-1.41,8.83-5.48,12.61-3.69-3.36-7.23-6.39-10.54-9.64-6.56-6.43-12.52-13.56-21.91-16.28a36.08,36.08,0,0,1-8-3.85c-12.69-7.48-26.71-10.67-41.06-12.43-14.85-1.82-29.92-2.19-44.62-4.76-12-2.09-23.88-1.55-35.79-1.65-10.94-.09-21.93,2.05-32.84,1.67-10.72-.37-20.47,4-30.94,4.41-3.89.15-7.77,1.46-11.59,2.47-5.68,1.5-11.39,3-16.94,4.89-7.73,2.65-15.34,5.65-23,8.59a78.46,78.46,0,0,0-27.24,17.61c-4.16,4.11-8.42,8.12-12.75,12.27-10.61-12.29-21.54-23.66-30.91-36.18-8.21-11-18.88-18.75-30.3-24.92-12.35-6.67-26-11.08-39.43-15.54-7.74-2.58-16.06-3.49-24.16-4.87-17.05-2.9-33.8-.7-50.17,4.12-13.76,4.06-24.74,13-34.52,23-13,13.22-22.73,28.86-30.18,45.82-5.4,12.31-10.05,24.88-11.22,38.49-0.28,3.24-1.65,6.39-2.77,10.48l-7.79-7.83c0.46-1,.92-2,1.38-2.89a12.31,12.31,0,0,1-2.47.24H453.95c-13.66,5.44-26.41,12.61-38.94,20.23-7.42,4.52-11.46,11.75-15.1,19-3,6-4.68,12.54-7,18.85-0.41,1.14-.52,2.87-1.33,3.32-5.62,3.13-10.4,7.9-17.57,8-3.56.06-7.88,0.65-10.48,2.73-5.17,4.15-11.33,6.14-16.76,9.53-4.4,2.75-8.25,6.39-12.29,9.7-4.79,3.92-9.32,8.19-14.35,11.78a52.86,52.86,0,0,0-17.07,19.28c-0.89,1.76-2.46,3.19-3.21,5-1.61,3.85-4.31,7.94-4,11.73,0.64,7.81-3.15,13.69-7.1,19.15-3.37,4.65-9.49,7.27-13,11.85-4.17,5.42-10.16,6.52-15.57,9.11-7.9,3.77-10.5,11.53-14.15,18.48-1.37,2.61-1.81,5.73-3.31,8.24-4.26,7.1-4.87,14.88-5.29,22.85-0.33,6.38-1.32,12.74-2.19,20.69-1.17-1.25-2.11-2-2.74-2.67a219,219,0,0,0-6.11,22.11,155.12,155.12,0,0,0,0,25.12,120.85,120.85,0,0,0,1.79,14.33c0.93,5.27,2.1,10.51,3.54,15.66a135.1,135.1,0,0,0,4.94,14.61l0.08,0.19,0.09,0.2c0.22,0.5.44,1,.67,1.49q0.78,1.7,1.62,3.38c1,2,2.09,4,3.25,5.9s2.29,3.62,3.56,5.35c0.24,0.3.66,0.84,0.89,1.11,0.7,0.81,1.41,1.61,2.15,2.38s1.46,1.48,2.23,2.19l0.9,0.76a81.47,81.47,0,0,0-2.21-15.07c-0.76-2.94-1.83-7.35,3.35-10,2.42,5.57,5,10.67,6.86,16a28.85,28.85,0,0,0,10.29,13.46,63.85,63.85,0,0,0,13.62,7.75c14.28,5.95,28.27,4.37,40.1-5.29a192.25,192.25,0,0,0,25.54-26,21.59,21.59,0,0,1,14.24-8.14c6.52-1.11,12.39-4.67,15.2-10.86,2.62-5.77,4.76-11.81,5-18.47,0.53-13,.81-13.05,14.16-11.31,11.14,1.46,21.93.84,32-4.7,0.87-.48,1.85-1.31,2.69-1.21,5.44,0.63,8-3.31,10.83-6.69a64.13,64.13,0,0,0,5.07-7.37c2-3.21,4.51-5,8.52-5.07,5.28-.12,10.47-1.27,14.55-5,7.84-7.17,16.56-13.6,20.26-24.3,0.48-1.38,2.26-2.32,4.06-4.07,10.13,24,20.59,47.14,34,69.14,7,5.36,11.86,12.76,16.53,21a11.49,11.49,0,0,1,1.43,4.12A213.37,213.37,0,0,0,573.39,1388c7.85,8,14.5,17,23.35,24.14s16.55,15.11,24.75,22.77c2.53,2.37,4,4.57,1.56,8.36a251.8,251.8,0,0,0-22.57,42.94c-6.08,15.27-12.07,30.6-13.31,47.2a77.26,77.26,0,0,0,.71,14.82c0.43,3.56,1.67,7,2.53,10.45-5.78,2-11.51,2.91-15.92,5.81-13.25,8.73-26.44,17.6-36.46,30.43-3.7,4.74-6.44,9.27-6.47,15.26,0,3.91,0,7.82,0,12.14-3.08,0-5.26,0-7.43,0-8.47-.13-17.11-1.42-25.37-0.18-17,2.53-33.43,6.88-47.52,18.06-10.45,8.3-13.21,13-10.28,25.74,1.71,7.46,4.69,14.28,11.4,18.71,4.51,3,9.28,5.59,13.67,8.73,10.32,7.39,22,12,34.09,14.69,22,4.92,44.24,9.17,66.79,10.83a175.08,175.08,0,0,0,27.67-.56c7.91-.67,15.67-2.92,23.58-3.81,14.46-1.63,28.36-5.6,41.85-10.59,6.43-2.38,11.45-1.46,17.06,1.08,3.36,1.52,6.91,3.36,10.46,3.56,21.22,1.17,39.4-5.88,53.95-21.52,5.35-5.75,7-12.4,3.3-19.86-1.88-3.83-3.84-7.33-7.87-9.53s-5.79-5-4.69-10.37c3-14.55-1.09-28-8.91-41.33,21.74-22.49,24.9-51.19,25.48-81.87,2.65,2,4.82,3.43,6.83,5.1q12.6,10.5,25.12,21.09a31.52,31.52,0,0,0,18.36,7.51c2.86,0.22,5.68,1.52,8.44,2.54,10.26,3.82,18.1.7,22.57-9a2.92,2.92,0,0,1,1.1-.8c5.73,0.87,11.36,2.15,17.05,2.47,5.5,0.31,11.06-.38,17.18-0.66a65.15,65.15,0,0,1-1.45,6.82,76.51,76.51,0,0,0-4.17,26.74c0.43,12.72,2.85,25,9.71,35.67,9.82,15.28,16,32,21.78,49,2.07,6.12,3.92,12.39,6.74,18.16,4.82,9.85,13.85,13.86,24.18,14.92,5.31,0.55,10.35,1.22,14.81,4.4,10.18,7.26,21.89,9.67,34,9.62,10.68-.05,21.35-1.15,32-1.71,5.7-.3,11.54.25,17.1-0.76,19.32-3.52,38.55-7.54,57.81-11.41a33.38,33.38,0,0,0,16.2-8.86c7.06-6.62,10.22-14.85,7-24.38-1.32-3.92-3.8-7.53-6.14-11-8.63-12.83-18-24.36-33-31.08-13.62-6.11-26.85-12.58-41.8-14.77-3.83-.56-7.49-2.33-11.74-3.71,0.35-2.43.26-4.76,1-6.74,4.77-12.16,6.66-24.87,7-37.77,0.39-15-5.1-27.69-16.85-37.4a11.16,11.16,0,0,1-1.65-1.75l5.3-22.82,0.72,0.3a10.72,10.72,0,0,1,1.11-4.87c-1.09-2.08-2.34-4.07-3.58-6.07-3.31-5.32-6.79-10.75-8.36-16.89a11.3,11.3,0,0,1-.2-5c-1.16-3.62-2.4-7.18-3.85-10.65a366.21,366.21,0,0,0-16.81-35.63c-4.16-7.54-9.9-14.29-15.52-20.9A97.25,97.25,0,0,0,942,1389.24c-9-6.87-18.69-12.93-28.57-19.66,1.07-2.68,1.4-5.41,2.92-7,8.83-9.46,17.66-19,27.05-27.85,7.39-7,15.55-13.2,23.42-19.68,5.58-4.6,11.07-9.35,16.92-13.59,11.27-8.16,23-15.64,34.08-24.09,7.88-6,14.85-13.23,22.31-19.82,4-3.52,6.91-8.35,12.6-10.74,0.86,1.92,1.61,3.42,2.21,5a66.63,66.63,0,0,0,9.77,17.36c11.3,1.25,21.05,11.2,28.81,18.47l0.67,0.63a72.91,72.91,0,0,0,8.4,1.75c7.27,1.08,14.76.77,22.34,1.1,0.06,3.88,0,7.75.11,11.57a10.42,10.42,0,0,1,.13,3.09c0.48,8.3,2.16,16.28,8.1,23.41,3.32,4,5.31,14.55,5,20.05-1.13,18.65,7.27,33.71,17.89,47.94a7.87,7.87,0,0,0,1.74,1.4c10.16,7.48,21.95,11.58,33.53,16.09a12.23,12.23,0,0,0,3.69.43c12,0.66,20-5.83,25.32-15.41,3.27-5.94,6.73-7.92,13.43-7.68,11.39,0.42,22.82.16,33-6.69,8.21-5.51,15.93-11.63,20.6-20.23,4.52-8.33,6.68-17.55,5-27.48-1.65-9.72-5.45-18.54-9.43-27.35-2.72-6-2.84-5.83,2.72-10,8.44-6.36,15.91-13.62,20.48-23.4C1309.74,1269.31,1310.58,1261.64,1305.28,1254.91Zm-157.77-216.63c4,12,14.79,10.94,23.45,13.71,3.69,1.18,7.51,1.94,11.27,2.89l-0.38,2.13c-3.13.38-6.29,1.26-9.39,1.07-13.29-.8-26.66-1.39-39.07-7.08a23.6,23.6,0,0,1-5.79-3.26c-1.14-1-2.26-3-2-4.32s2.14-2.81,3.5-3C1135.14,1039.46,1141.26,1039,1147.51,1038.28Zm-25.26-115.77c2.27,2.08,4.44,3.11,4.81,4.58,2.38,9.46,8.38,17.68,9,27.84,0.21,3.61-.22,6.34-2.59,8.76-2.77,2.82-5.81,5.37-8.56,8.21-1.31,1.35-2.92,3-3.17,4.67-0.65,4.28-3.6,6.17-6.58,8.21l-1.86-.53Zm-657.76,134c3.55-1.21,4.51,2.67,6.48,6.25l-18.66,2.46-0.66-1.71C455.9,1061.13,459.94,1058.09,464.49,1056.53Zm-39.14,47.57c2.43-3.08,5.65-3.5,10.35-2.2l-8.92,10.33C424,1109,423.36,1106.64,425.35,1104.1Zm-73.13,40.57c4.49-3.41,9.33-6.35,14.05-9.44,2.67-1.74,4.5-.78,6.13,1.77,10.19,16,8.85,12.77-1.81,23.85-3.31,3.44-11,7.38-18.44,9.75a1.41,1.41,0,0,1-.57-0.46c-0.89-5.66-1.55-11.35-2.67-17A8.11,8.11,0,0,1,352.23,1144.67Zm66.22,144.26a1.62,1.62,0,0,1-.58.46c-7.71,5.56-24.28,2.88-31.17-5.86,10.25-1.31,19.55-2.69,28.89-3.5,1.66-.15,4.51,1.72,5,3.25S419.28,1287,418.44,1288.93Zm72-176.94c-1.78,11-3.92,21.95-5.83,32.93a139.8,139.8,0,0,0-1.93,14.08c-0.67,9.62-1.52,19.27-1.35,28.88,0.12,6.41,1.9,12.79,2.87,19.19a43.61,43.61,0,0,1,.22,4.46c-4.44,1.7-8.05.38-11-2-8.24,5.79-9.21,8.81-6,17.22,1.7,4.38,1.14,7.07-3.1,9.39a72.36,72.36,0,0,1-13.74,5.81c-5,1.5-10.22,2-15.32,3.17a37.51,37.51,0,0,0-5.56,2,40.38,40.38,0,0,1-4.79,2c-15.48,3.89-30.94,8.14-47.17,5.09-4.88-.92-9.71-2.17-14.62-2.75-5.64-.67-9.93,2.69-13.8,6.12a8.39,8.39,0,0,0-2.67,8.82c0.62,2.38.52,4.94,0.76,7.69l-6.46,5.52c1.19,3.47,2.18,7.54,3.93,11.25,4.17,8.83,2.57,17.34-5.78,21.91-6.8,3.72-8.89,9.13-10.18,16.15-3,16.15-10.11,30.1-23.81,40-6.34,4.56-10.22,3.15-13-4.16-1.7-4.49-1.16-8.8.11-13.21,4-13.88-2.49-22.24-17.16-22.17-7.24,0-9.13-1.48-9-7.54,0.34-12.4.37-24.84,1.34-37.2,0.8-10.16,2.87-20.21,4.18-30.33,0.8-6.14,5-10.11,8.59-14.52,2.94-3.63,6-7.19,8.89-10.83,3.1-3.85,6.13-7.75,9-11.39,7.88,2.29,8.9,4.43,5.5,10.6-1.14,2.08-3.94,3.72-2.25,6.52s3.31,5.72,5.75,7.55c4.63,3.47,10.47,1.68,14.06-3.93,2-3.14,3-6.24,1.89-10.5-2.61-9.82-2-19.66,3.44-29.37-2.56-8.17-3.15-16,2.48-24.15l14.34,6.71a39.57,39.57,0,0,1-1.33,4.29c-1.16,2.75-2.65,5.36-3.73,8.14-2.11,5.45-1,10.16,3.33,14.26s8.4,8.24,14.89,9.19c8.49,1.23,10.74.55,15.14-6.88,0.75-1.26,1.33-2.62,2.09-4.16,4.67,0.48,8-.91,11.78-4.38,5.29-4.9,11.73-9.05,20.28-4.76,3,1.52,8.27.83,11.57-.77,9.34-4.51,19.08-8.69,25.47-17.68,2.71-3.82,6-5.51,11.52-4.43,7.43,1.44,14.24-2.09,19.36-7.69,2.91-3.18,3.17-7.22,1-11.16-1.81-3.27-3.33-6.76-5.51-9.77a36.64,36.64,0,0,1-7.16-26,30.1,30.1,0,0,0-.52-8.2c-1.11-6.09-5-9.39-11.34-9.91-2.23-.18-4.46-0.34-6.68-0.54a4.54,4.54,0,0,1-1.07-.89c2.06-3.87,6-5.53,9.63-7.11,5.79-2.52,12-3,18.34-2.59,4.35,0.27,7.56,2,9.77,5.85,2.35,4.06,4.5,8.24,8.75,11C490.07,1107.54,490.68,1110.32,490.41,1112ZM545.6,999.55c5-11.68,10-23.44,19-32.71,3.59-3.69,8.44-6.15,12.1-9.79,7.69-7.65,17.16-8.64,27.33-9.68a103.58,103.58,0,0,1,34.86,2.71c19.9,4.77,38.56,12.6,54.34,26.71,6.94,6.2,12.21,13.55,18.42,20.21a258.13,258.13,0,0,1,17,20.54c3.78,5,6.6,10.26,2.29,17-3.59,5.62-6,12-5.53,19,0.47,7.7,6,13.33,13.76,13.6,6.52,0.23,12.23-.5,15.75-7.36,2-3.9,5.58-7,8.33-10.53a18.27,18.27,0,0,0,3.1-5.06c5.21-15.45,16.19-26.74,27.49-37.64,6.93-6.68,16.11-10,25-13,10.58-3.55,21.38-7,32.36-8.69,30.56-4.72,61.29-8.69,92.29-5.13,15.32,1.76,30.78,2.81,45.75,7.12,5.45,1.57,11.2,2,16.79,3.14,11.76,2.33,20.95,8.79,28.56,17.84,2.79,3.32,5.87,6.4,9,9.84a26.27,26.27,0,0,1-3.41,3c-15.51,8.86-30.09,19.33-46.54,26.55-9.34,4.1-18.27,9.65-28,12.16-12.92,3.33-26.45,4.28-39.71,6.35-8.52,1.33-17,2.85-25.52,4.3-0.73.12-1.42,0.49-2.16,0.59-8.63,1.1-17.27,2.15-25.91,3.24-17.77,2.25-35.73,3.57-53.22,7.19-9.27,1.92-18.24,1.91-27.41,2a28.57,28.57,0,0,1-7.41-.78c-4.38-1.12-8.47-.83-13-0.21-11.57,1.58-23.29,1.15-34.51-3a27,27,0,0,0-4.24-1.4c-10.71-2.06-21.37-4.53-32.17-5.94-13.24-1.73-25.22-7.16-37.68-11.25-7.08-2.32-14.4-3.93-21.61-5.84-2.41-.63-4.9-1-7.24-1.79-12.65-4.3-25.34-8.47-37.86-13.12-13.85-5.15-26.31-12.91-38.07-21.79a6.25,6.25,0,0,1-2.28-2.84c-1.22-4.18-4.35-6.6-7.74-8.73C545.21,1004.67,544.23,1002.75,545.6,999.55Zm159,568.77A27.12,27.12,0,0,1,694,1580.53c-4.16,2.69-4.39,6.11-4.3,10.21a57.42,57.42,0,0,1-.41,10.23c-0.8,5,.67,9.27,3,13.55a42.14,42.14,0,0,1,3.93,9.57c0.92,3.53-.39,6.6-4.32,7.44-4.3.92-7.24,3.49-10.61,6.15-3.78,3-4.19,5.7-3,9.59,0.41,1.39.81,2.79,1.24,4.3-3.67,2.49-6.43,5.21-11.32,5.26-3.64,0-8,1.9-9.69,6-2,5-6.36,6.66-10.58,8.43-14.27,6-29.58,8.15-44.52,11.62-6,1.39-12.39.86-18.62,1.08-9.21.33-18.47,1.24-27.63,0.64-8.38-.55-16.65-2.77-25-4.3-0.71-.13-1.37-0.95-2-0.9-14.49,1.12-27.57-5.06-41.27-8a15.84,15.84,0,0,1-2.9-.69c-4.2-1.78-4.92-4.9-1.87-8.2a7.66,7.66,0,0,1,2.89-2.33c15-4.66,30-9.36,46-5.87,1.95,0.42,3.93.73,5.91,1,5.28,0.77,6.44.19,9-4.38,3.19-5.67,5.25-6.48,10.66-3.37a42.37,42.37,0,0,0,28.84,5c5.82-1,11.11-3,13.38-9.32,1.64-4.57.25-8.74-4.41-9-7.53-.5-13.56-5.74-21.62-5.06-6.42.54-9.62-7.82-5.81-13.45,5.11-7.57,12.1-13.18,19.89-17.74,6.79-4,13.92-7.37,20.64-11.46,3.68-2.23,6.52-5.51,6.07-10.44-0.16-1.71-.24-3.43-0.37-5.44,12.28-3.58,14.61-8.57,9.84-19.49-2-4.61-1.54-9.28-.29-13.93,2.71-10,4.85-20.22,8.41-29.92,3.41-9.33,8.13-18.2,12.61-27.11,2.75-5.47,6.15-10.62,9.45-16.25,7.74,3.11,13.05,8,18.76,12.21,2.58,1.92,5.13,3.92,7.86,5.61q11.43,7.06,23,13.86a8.48,8.48,0,0,1,4.44,7.27c0.7,9.7,2,19.37,2.23,29.07A87.24,87.24,0,0,1,704.56,1568.32Zm228.18-146a203.67,203.67,0,0,1,11.78,17.17,136.38,136.38,0,0,1,9.47,16.65c3.66,8.15,6.54,16.65,9.79,25,1.71,4.38,3.72,8.66,5.16,13.12s2.32,9,3.63,14.26c-5.6,1-10.15,2.11-14.76,2.58-3.18.32-4.35,2-4.8,4.71-1.07,6.54-.23,12.46,5.59,16.72,4.63,3.39,9.1,7,13.88,10.15,8.17,5.36,9.32,12.83,8.89,22-0.63,13.51-6.24,26.1-6.21,39.59,0,3.83.56,7.67,1,12.7-2.45,2.62-3.33,6.93-3.12,11.86,0.23,5.3,1.9,8.45,6.72,10.1,1.88,0.64,4.11.89,5.55,2.09,6.34,5.25,13.77,5,21.29,5,6.72,0,13.46.06,19.73,3.19a10.26,10.26,0,0,0,4.37.73c8.52,0.08,15.91,3.77,23.08,7.68,3.17,1.73,5.77,4.75,8.17,7.57,2.85,3.34,1.95,5.83-2.46,7.13-6,1.75-12,3.54-18.08,4.7-7.53,1.44-15.17,2.31-22.77,3.32-12.24,1.61-24.47,3.48-36.76,4.56-6.57.58-13.28-.22-19.92-0.48-1.48-.06-3-0.92-4.41-0.72-7.59,1.11-12.11-4.16-15.19-9.11-5.51-8.86-12.84-12.4-23.42-11.57-0.79-2.73-1.72-5.26-2.24-7.87a90.85,90.85,0,0,0-11.62-30.43c-6.61-10.69-10.85-22.4-10.43-35.23,0.23-7.2,1.21-14.19,5.83-20.38,5.53-7.4,3.43-19.17-3.1-24.48-2.53-2.05-6-3-10-4.89,2.82-2.63,5.09-5.09,7.7-7.11,3.52-2.73,3.73-5.52,0-8.31-4.81-3.57-10.39-3.94-16.2-3.85-13.88.22-27.79,2.21-41.63-.52-8.12-1.6-12.67-8.82-10.33-16.69A158.87,158.87,0,0,1,845.74,1462c5.65-8.74,10.17-18.21,15.93-26.87,5.35-8,11.73-15.38,17.54-23.12,3.58-4.78,7.07-9.64,10.33-14.63,2.14-3.26,4.83-3.68,7.6-1.64C909.06,1404.53,923.3,1410.32,932.74,1422.34Zm122-241.1c-2,3.42-3.65,7.07-5.32,10.67-5.31,11.49-13.78,20.61-21.92,30.06-14,16.28-30.51,29.84-47.46,42.77-11,8.42-23.15,15.42-34.6,23.31-3.62,2.5-6.75,5.75-10,8.79-8.71,8.2-17.55,16.29-26,24.79-7.51,7.59-14.48,15.72-21.78,23.51a47.19,47.19,0,0,1-4.9,4.14c-4.31-1.85-7.82-3.06-11-4.83a30,30,0,0,1-6.31-5c-4.07-4-7.81-8.35-12-12.29a27.76,27.76,0,0,0-17.57-7.5c-10.38-.69-19.77-4.75-29.54-7.59-5.25-1.53-10.59-2.74-15.92-3.95-7.7-1.75-15.41-3.48-23.16-5-6.34-1.26-12.71-2.47-19.13-3.28a106,106,0,0,1-30.71-8.54c-8-3.6-19.85,1.74-18.12,13.48,0.28,1.9.73,3.78,1.17,6.06a30.19,30.19,0,0,1-4.65.79c-10.77,0-13.14,6.27-14.35,14.68a22.25,22.25,0,0,0,.09,6.73c2.91,17.45,5.8,34.9,9,52.29,0.86,4.6,2.84,9,4.45,13.44s4.12,7.56,9.13,9c3.43,1,6.54,3.57,9.41,5.9a16.36,16.36,0,0,0,11.05,3.79c2.74,0,5.48,0,8.23,0a28.24,28.24,0,0,0,16.76-5c6.7-4.59,14.47-7.59,21.47-11.78,11.82-7.08,24.69-11.82,37.51-16.42,16.12-5.78,32.63-10.47,49-15.44,3.16-1,6.59-1,9.9-1.53l1,1.57c-2.24,3.1-4.46,6.21-6.71,9.29-8.35,11.43-16.24,23.23-25.2,34.15-8,9.76-13.07,21.13-19.57,31.71-5,8.18-9.14,16.66-15.69,24.17-8.22,9.41-12.47,21.64-10,34.7,1.4,7.51-1.48,14-2.63,21.93a49.89,49.89,0,0,1-4-3.12c-18.42-18.07-40.12-31.62-61.65-45.53-15-9.71-31.21-17.68-44.88-29.49-9.59-8.28-19.63-16-29.12-24.42-10.6-9.37-21.07-18.92-31.12-28.87a227,227,0,0,1-19.8-22.29c-12.46-16.12-25.24-32.11-36.33-49.16-11.88-18.26-23.62-36.83-29.75-58.19-1.91-6.65-5.05-12.93-7.27-19.5a192.42,192.42,0,0,1-10-58.08c-0.29-15.37,0-31,3.51-46.18,0.67-2.91.78-6,1.49-8.86a63.41,63.41,0,0,1,2.6-7c5.63,2.85,10.38,5.46,15.3,7.71,8.11,3.7,16.22,7.48,24.56,10.6,3.87,1.45,8.5.86,12.42,2.24,16.51,5.8,33.88,7.8,50.76,11.94a10.33,10.33,0,0,0,3.72.3c17.08-2.25,33.74,2.43,50.64,3,10.72,0.38,21.43,1,32.16,1.29,18.22,0.45,36.44.51,54.66,1.1,7.66,0.25,15.29,1.46,22.94,2.13,21.85,1.89,43.73,3.58,65.56,5.66,5.39,0.51,10.64,2.3,16,3.28,4.84,0.89,9.72,1.64,14.62,2.15,9.4,1,18.74,3.09,28.31,1.45,7.1-1.22,14.3-1.94,21.37-3.31,4.36-.85,8.57-2.5,12.84-3.8a139.18,139.18,0,0,1,32.24-6.31,43.5,43.5,0,0,0,6.61-1.16c15.53-3.4,31.2-6.3,46.52-10.47,9.25-2.52,18-6.91,26.88-10.75,2.71-1.17,5-3.54,8.83-.66C1066,1154.75,1062.14,1168.62,1054.7,1181.24ZM823.52,1348.68l-10.89,4.17a8.75,8.75,0,0,1,5.73-7.71C820.62,1344.14,822.52,1345.62,823.52,1348.68Zm-92.26,8.6c-1.68.94-3.39,1.83-5.6,3-4.28-6.42-1.38-13.57-3.49-19.83-2-6.07-3-12.49-4.78-20,2.89,0.29,4.86,0,6.39.72a71.62,71.62,0,0,0,21.56,5.54c11.6,1.38,23.11,3.5,34.61,5.59,2.12,0.39,4,2.15,7.54,4.17-4.29,1.93-6.82,3.43-9.55,4.23-11.42,3.35-23,6.2-34.33,9.85C739.22,1352,735.36,1355,731.26,1357.28Zm9.08,24.22-9.9,5.78-1.64-11.2,11.35,3.66Zm330.6-298.43c-3.35,4.3-7.48,8-11.3,11.94a10.86,10.86,0,0,0-1.65,1.52c-6.75,11-18.74,13.44-29.53,17.32a150.88,150.88,0,0,1-37,8.72c-3.84.36-7.49,2.48-11.33,3.24-10.49,2.07-21.12,3.52-31.55,5.83-8.46,1.87-16.71,4.64-25.07,7a34.06,34.06,0,0,1-7.25,1.62c-13.31.64-26.54,2.16-39.83-1.75-7-2.07-14.79-1.62-22.22-2.38q-26.67-2.76-53.33-5.6c-6.44-.67-12.88-1.28-19.32-2-8.88-.92-17.75-2.14-26.66-2.73-6-.39-12,0.2-18,0.14-11-.1-22,0.46-32.82-0.82-7.08-.84-14.07.39-21-0.77-2.1-.35-4.23-0.54-6.33-0.88a16.17,16.17,0,0,0-2.86-.69c-19.73.74-39.34-1-58.9-3.25a164.43,164.43,0,0,1-18.26-3.67c-11.36-2.65-22.74-5.23-34-8.33-6-1.64-11.67-4.23-17.43-6.56-5.5-2.22-10.91-4.66-16.74-7.17-1.91-6.68,1.32-38.19,5.74-52.22,2.81,1.46,5.66,2.7,8.27,4.32,11.19,7,21.89,14.88,33.62,20.76,6.87,3.44,14.2,6.71,22.38,7.81,6.66,0.89,13.58,2.42,19.54,6.8,3.17,2.33,7.82,2.73,11.86,3.76,6,1.54,12.14,2.67,18.11,4.35a133.23,133.23,0,0,1,13.33,4.74,228.44,228.44,0,0,0,47.31,13.7c5.34,0.89,11.61,1,15.35,6.77,5.61-5.32,11.79-2.24,17-.69,9.61,2.84,19.28,2.19,28.93,2.63,14.2,0.66,28.41,1.19,42.62,1.14,6.39,0,12.77-1.55,19.15-2.44,5.91-.82,11.83-1.6,17.71-2.59,9-1.52,18-3.2,27-4.81,0.74-.13,1.46-0.38,2.19-0.47,11.34-1.34,22.7-2.51,34-4,13.76-1.83,27.49-3.93,41.24-5.91,2.22-.32,4.44-0.66,6.67-0.92,13.72-1.6,27-4.47,39.07-11.75,4.2-2.53,9.1-4,13.76-5.64,15.11-5.47,28.31-14.38,41.53-23.19,4.34-2.89,8.41-4.67,13-1.28a10.29,10.29,0,0,1,3.76,5.11,61.85,61.85,0,0,1,2.46,14.57A15.22,15.22,0,0,1,1070.94,1083.08Zm199.54,191.16c-4.1,4.23-8,8.57-14.3,10.37-9.17,2.62-13.65,9.25-13.38,18.18a16.41,16.41,0,0,0,2.25,7.71c2.82,4.65,6.36,8.85,9.37,13.39,6.67,10,9.14,20.46,2.43,31.56-3,5-7.34,8.34-13.09,8.86a222.3,222.3,0,0,1-22.4.79c-2.33,0-4.71-1.4-6.94-2.42-12.54-5.69-25.55-.15-30.48,13-0.25.67-.65,1.28-1.48,2.89-7-6.88-12.17-13.88-11.8-24.88,3.59-.84,7.34-1.74,11.1-2.6,2.18-.5,4.54-0.57,6.54-1.47,5.31-2.39,7-7.49,3.71-12.33-2.19-3.26-5.16-6-8-8.79-0.75-.75-2.54-1.42-3.3-1-3.84,1.94-6.34-.63-8.59-2.65-4.51-4-10.66-6.94-11.78-13.75a84.17,84.17,0,0,1-.91-13.15c0-1.93,1-3.84,1.45-5.79,2.56-11-2.82-18.55-14.07-19.81-1-.11-2-0.3-2.85-0.43-4-10-8.16-9.45-19.1-9.5-4.48,0-9,.89-13.43.36-12.72-1.51-18.23-6.7-22.45-18.75-2.53-7.22-3-15.14.44-22.56,3.27-7,1.8-12.52-4.86-16.62a9.84,9.84,0,0,1-1.94-2.42c2.22-4.78,4.66-9.39,6.54-14.23,3.23-8.3,6-16.77,9.15-25.11,2.56-6.78,2.92-14.64,10.14-19.18,2.12-1.33,3.41-4.25,4.64-6.66,3.6-7.06,9.34-11.3,17.12-11.33,8.68,0,17.36,1.08,26,1.77,1.48,0.12,2.94.92,4.39,0.87,13.65-.47,20.36,19.79,12.37,30.43-2.18,2.9-4.31,5.84-6.58,8.93-2.07-2.15-4.14-4.48-6.39-6.63-4.19-4-9-3.8-13.85-1.54-5.3,2.49-10.32,5.44-9.66,12.61,0.55,5.92.77,11.9,1.72,17.76,1,6.18,14,13.45,21.57,8.3,6.67-4.51,9.82-8.8,11-16.85,5.33,1.36,11.23,1.73,15.94,4.29,10.57,5.73,20.77,2,31.16.45,2.45-.36,4.94-0.52,7.38-0.94,7.83-1.35,12,4.74,11.95,10.2,0,11.22-.59,22.44-1.17,33.65-0.24,4.65-3.51,6.81-8.28,8.07-2.86-4-5.77-8-8.6-12-1.43-2-2.45-4.44-4.13-6.22-2.64-2.8-5.31-3.43-9.77-2.26-10.19,2.67-12.35,10.5-14.77,18.67-0.39,1.33-.82,2.64-1.5,4.83-4.43-3.27-3.27-6.77-2.63-9.7,0.76-3.46,0-5.45-2.93-7.53-5.25-3.74-9.94-8.25-15.16-12-7.71-5.6-15.89-6.45-24.34-1.37a55.85,55.85,0,0,1-5.37,2.53c-5.88,2.73-8.22,6.3-7.53,11.5,0.82,6.19,5.69,11.85,11.27,12.39a97.86,97.86,0,0,0,12-.08,7.22,7.22,0,0,1,7.24,4.13,23.93,23.93,0,0,0,6.49,7c3.15,2.36,6.5,1.5,9.61-.78,1.87-1.38,4-2.44,6-3.65l1.22,1.2c-0.64,1.36-.92,3.34-2,4-4.7,2.76-5.61,7-4.52,11.62,1.35,5.68.21,9.64-4.23,13.86-3.14,3-4.24,8.13-6,11.72,1,6.82,6,10.12,9.58,14.38,2.06,2.48,5.08,3.43,8.12,1.78,3.68-2,8.23-3.62,10.4-6.78,2-2.86,1.45-7.56,1.59-11.46,0.06-1.89-.91-3.8-1.55-6.23,8.24-4.67,14-11.73,19.64-19,2.33-3,7.14-4,10.53-5.83,3.94,2.93,7.52,5.22,10.64,8,2.9,2.6,5.45,3.35,9.4,2.08,2.33-.75,5.45,1,9,1.8a6.4,6.4,0,0,1,6.66-4c3.13,0.23,5.69.92,7.9,3.43C1273.72,1267.44,1274.3,1270.29,1270.48,1274.24Z"/><path class="cls-2" d="M1069.38,1140.41c-3.42,14.35-7.24,28.21-14.68,40.83-2,3.42-3.65,7.07-5.32,10.67-5.31,11.49-13.78,20.61-21.92,30.06-14,16.28-30.51,29.84-47.46,42.77-11,8.42-23.15,15.42-34.6,23.31-3.62,2.5-6.75,5.75-10,8.79-8.71,8.2-17.55,16.29-26,24.79-7.51,7.59-14.48,15.72-21.78,23.51a47.13,47.13,0,0,1-4.9,4.14c-4.31-1.85-7.82-3.06-11-4.83a30,30,0,0,1-6.31-5c-4.07-4-7.81-8.35-12-12.29a27.76,27.76,0,0,0-17.57-7.5c-10.38-.69-19.77-4.75-29.54-7.59-5.24-1.53-10.59-2.74-15.92-3.95-7.7-1.75-15.41-3.48-23.16-5-6.34-1.26-12.71-2.47-19.13-3.28a106,106,0,0,1-30.71-8.54c-8-3.6-19.85,1.74-18.12,13.48,0.28,1.9.73,3.78,1.17,6.06a30.2,30.2,0,0,1-4.65.79c-10.77,0-13.14,6.27-14.35,14.68a22.25,22.25,0,0,0,.09,6.73c2.91,17.45,5.8,34.9,9,52.29,0.86,4.6,2.84,9,4.45,13.44s4.12,7.56,9.13,9c3.43,1,6.54,3.57,9.41,5.9a16.36,16.36,0,0,0,11.05,3.79c2.74,0,5.48,0,8.23,0a28.24,28.24,0,0,0,16.76-5c6.7-4.59,14.47-7.59,21.47-11.78,11.82-7.08,24.69-11.82,37.51-16.42,16.12-5.78,32.63-10.47,49-15.44,3.16-1,6.59-1,9.9-1.53l1,1.57c-2.24,3.1-4.46,6.21-6.71,9.29-8.35,11.43-16.24,23.23-25.2,34.15-8,9.76-13.07,21.13-19.57,31.71-5,8.18-9.14,16.66-15.69,24.17-8.22,9.41-12.47,21.64-10,34.7,1.4,7.51-1.48,14-2.63,21.93a49.87,49.87,0,0,1-4-3.12c-18.42-18.07-40.12-31.62-61.65-45.53-15-9.71-31.21-17.68-44.88-29.49-9.59-8.28-19.63-16-29.12-24.42-10.6-9.37-21.07-18.92-31.12-28.87a227,227,0,0,1-19.8-22.29c-12.46-16.12-25.24-32.11-36.33-49.16-11.88-18.26-23.62-36.83-29.75-58.19-1.91-6.65-5.05-12.93-7.27-19.5a192.42,192.42,0,0,1-10-58.08c-0.29-15.37,0-31,3.51-46.18,0.67-2.91.78-6,1.49-8.86a63.41,63.41,0,0,1,2.61-7c5.63,2.85,10.38,5.46,15.3,7.71,8.11,3.7,16.22,7.48,24.56,10.6,3.87,1.45,8.5.86,12.42,2.24,16.51,5.8,33.88,7.8,50.76,11.94a10.33,10.33,0,0,0,3.72.3c17.08-2.25,33.74,2.43,50.64,3,10.72,0.38,21.43,1,32.16,1.29,18.22,0.45,36.44.51,54.66,1.1,7.66,0.25,15.29,1.46,22.94,2.13,21.85,1.89,43.73,3.58,65.56,5.66,5.39,0.51,10.64,2.3,16,3.28,4.84,0.89,9.72,1.64,14.62,2.15,9.4,1,18.74,3.09,28.31,1.45,7.1-1.22,14.3-1.94,21.37-3.31,4.36-.85,8.57-2.5,12.84-3.8a139.18,139.18,0,0,1,32.24-6.31,43.5,43.5,0,0,0,6.61-1.16c15.53-3.4,31.2-6.3,46.52-10.47,9.25-2.52,18-6.91,26.88-10.75C1063.25,1139.89,1065.5,1137.53,1069.38,1140.41Zm-406.43,121c13.61-.28,26-4.11,36.37-13.25,4.05-3.56,6.68-12.06,4-15.41-4.06-5.13-2.28-8.83,1-13.3,5.29-7.13,10.74-14,11.59-23.74,0.75-8.73,1.54-8.55-2.13-16.63-1.43-3.15-2.44-6.15-6.58-5.71-3.38.36-7.77-.17-9.86,1.73-4,3.61-7.56,3.86-12.14,2.33a41.05,41.05,0,0,0-7.33-1.32c-8.38-1.17-17-1.47-25.09-3.61-11.2-3-23.09-4.07-33.2-10.56a3,3,0,0,0-2.11-.55c-6.16,2-11.67-1.14-17.48-1.86-4.64-.58-10.26-1.31-13.87,3.13-4.65,5.72-9.63,11.1-11.57,18.81-3.08,12.26-2.31,23.46,4.66,34.34,11,17.12,25.85,29.1,44.55,37C636.41,1258.1,649.25,1261.34,662.94,1261.45Zm263.63-58c-3.58-1.83-7.33-5-11.47-5.63-8.54-1.36-17.31-1-25.78-3.46-9.76-2.85-20.18-4.13-29.31-8.29-6.59-3-13.2-3.56-19.84-5.18-6-1.46-9.48,2-12.69,5.6-1.83,2-2.25,5.32-3.38,8.23-2.07-.11-4-0.25-6-0.33-8.27-.31-13.84,4.6-14,12.9-0.09,3.67.78,7.38,1.26,11.06,1.49,11.46,9,20.16,15.52,28.49,12.28,15.74,30,23,49.82,25.17,13.08,1.43,25.2-2.66,37.08-7,6.19-2.26,12.38-5.27,17-10.55,3.89-4.48,8.73-8.29,11.88-13.21,2.72-4.25,3.91-9.56,5.31-14.54,1-3.6-1.49-6.13-4-8.27s-4.39.1-6.53,1.31c-1.52.86-3.57,0.8-6.11,1.29Z"/><path class="cls-2" d="M1043.66,1017.7a26.27,26.27,0,0,1-3.41,3c-15.51,8.86-30.09,19.33-46.54,26.55-9.34,4.1-18.27,9.65-28,12.16-12.92,3.33-26.45,4.28-39.71,6.35-8.52,1.33-17,2.85-25.52,4.3-0.73.12-1.42,0.49-2.15,0.59-8.63,1.1-17.27,2.15-25.91,3.24-17.77,2.25-35.73,3.57-53.22,7.19-9.27,1.92-18.24,1.91-27.41,2a28.57,28.57,0,0,1-7.41-.78c-4.38-1.12-8.47-.83-13-0.21-11.57,1.58-23.29,1.15-34.51-3a27,27,0,0,0-4.24-1.4c-10.71-2.06-21.37-4.53-32.17-5.94-13.24-1.73-25.22-7.16-37.68-11.25-7.08-2.32-14.4-3.93-21.61-5.84-2.41-.63-4.9-1-7.24-1.79-12.65-4.3-25.34-8.47-37.86-13.12-13.85-5.15-26.31-12.91-38.07-21.79a6.25,6.25,0,0,1-2.28-2.84c-1.22-4.18-4.35-6.6-7.74-8.73-2.74-1.72-3.72-3.65-2.35-6.85,5-11.69,10-23.44,19-32.71,3.59-3.69,8.44-6.15,12.1-9.79,7.69-7.65,17.16-8.64,27.33-9.68a103.57,103.57,0,0,1,34.86,2.71c19.9,4.77,38.56,12.6,54.34,26.71,6.94,6.2,12.21,13.55,18.42,20.21a258.12,258.12,0,0,1,17,20.54c3.78,5,6.6,10.26,2.29,17-3.59,5.62-6,12-5.53,19,0.47,7.7,6,13.33,13.76,13.6,6.52,0.23,12.23-.5,15.75-7.36,2-3.9,5.58-7,8.33-10.53a18.28,18.28,0,0,0,3.1-5.06c5.21-15.45,16.19-26.74,27.49-37.64,6.93-6.68,16.11-10,25-13,10.58-3.55,21.38-7,32.36-8.69,30.56-4.72,61.29-8.69,92.29-5.13,15.32,1.76,30.78,2.81,45.75,7.12,5.45,1.57,11.2,2,16.79,3.14,11.76,2.33,20.95,8.79,28.56,17.84C1037.41,1011.17,1040.49,1014.26,1043.66,1017.7Z"/><path class="cls-3" d="M976.14,1617c-2.45,2.62-3.33,6.93-3.12,11.86,0.23,5.3,1.9,8.45,6.72,10.1,1.88,0.64,4.11.89,5.55,2.09,6.34,5.25,13.77,5,21.29,5,6.72,0,13.46.06,19.73,3.19a10.26,10.26,0,0,0,4.37.73c8.52,0.08,15.91,3.77,23.08,7.68,3.17,1.73,5.77,4.75,8.17,7.57,2.85,3.34,1.95,5.83-2.46,7.13-6,1.75-12,3.54-18.08,4.7-7.53,1.44-15.17,2.31-22.77,3.32-12.24,1.61-24.47,3.48-36.76,4.56-6.58.58-13.28-.22-19.92-0.48-1.48-.06-3-0.92-4.41-0.72-7.59,1.11-12.11-4.16-15.19-9.11-5.51-8.86-12.84-12.4-23.42-11.57-0.79-2.73-1.72-5.26-2.24-7.87a90.85,90.85,0,0,0-11.62-30.43c-6.61-10.69-10.85-22.4-10.43-35.23,0.23-7.2,1.21-14.19,5.83-20.38,5.53-7.4,3.43-19.17-3.1-24.48-2.53-2.05-6-3-10-4.89,2.82-2.63,5.09-5.09,7.7-7.11,3.52-2.73,3.73-5.52,0-8.31-4.81-3.57-10.39-3.94-16.2-3.85-13.88.22-27.79,2.21-41.63-.52-8.12-1.6-12.67-8.82-10.33-16.69A158.86,158.86,0,0,1,845.74,1462c5.65-8.74,10.17-18.21,15.93-26.87,5.35-8,11.73-15.38,17.54-23.12,3.58-4.78,7.07-9.64,10.33-14.63,2.14-3.26,4.83-3.68,7.6-1.64,11.92,8.82,26.16,14.61,35.61,26.63a203.65,203.65,0,0,1,11.78,17.17,136.36,136.36,0,0,1,9.47,16.65c3.66,8.15,6.54,16.65,9.79,25,1.71,4.38,3.72,8.66,5.16,13.12s2.32,9,3.63,14.26c-5.6,1-10.15,2.11-14.76,2.58-3.18.32-4.35,2-4.8,4.71-1.07,6.54-.23,12.46,5.59,16.72,4.63,3.39,9.1,7,13.88,10.15,8.17,5.36,9.32,12.83,8.89,22-0.63,13.51-6.24,26.1-6.21,39.59C975.19,1608.15,975.74,1612,976.14,1617Z"/><path class="cls-3" d="M615.28,1570.67c12.28-3.58,14.61-8.57,9.84-19.49-2-4.61-1.54-9.28-.29-13.93,2.71-10,4.85-20.22,8.4-29.92,3.41-9.33,8.13-18.2,12.61-27.11,2.75-5.47,6.15-10.62,9.45-16.25,7.74,3.11,13.05,8,18.76,12.21,2.58,1.92,5.13,3.92,7.86,5.61q11.43,7.06,23,13.86a8.48,8.48,0,0,1,4.44,7.27c0.7,9.7,2,19.37,2.23,29.07a87.24,87.24,0,0,1-7,36.32A27.12,27.12,0,0,1,694,1580.53c-4.16,2.69-4.39,6.11-4.3,10.21a57.39,57.39,0,0,1-.41,10.23c-0.8,5,.67,9.27,3,13.55a42.14,42.14,0,0,1,3.93,9.57c0.92,3.53-.39,6.6-4.32,7.44-4.3.92-7.24,3.49-10.61,6.15-3.78,3-4.19,5.7-3,9.59,0.41,1.39.81,2.79,1.24,4.3-3.67,2.49-6.43,5.21-11.32,5.26-3.64,0-8,1.9-9.69,6-2,5-6.36,6.66-10.58,8.43-14.27,6-29.58,8.15-44.52,11.62-6,1.39-12.39.86-18.62,1.08-9.21.33-18.47,1.24-27.63,0.64-8.38-.55-16.65-2.77-25-4.3-0.71-.13-1.37-0.95-2-0.9-14.49,1.12-27.57-5.06-41.27-8a15.84,15.84,0,0,1-2.9-.69c-4.2-1.78-4.92-4.9-1.87-8.2a7.67,7.67,0,0,1,2.89-2.33c15-4.66,30-9.36,46-5.87,1.95,0.42,3.93.73,5.91,1,5.28,0.77,6.44.19,9-4.38,3.19-5.67,5.25-6.48,10.66-3.37a42.37,42.37,0,0,0,28.84,5c5.82-1,11.11-3,13.38-9.32,1.64-4.57.25-8.74-4.41-9-7.53-.5-13.56-5.74-21.62-5.06-6.42.54-9.62-7.82-5.81-13.45,5.11-7.57,12.1-13.18,19.89-17.74,6.79-4,13.92-7.37,20.64-11.46,3.68-2.23,6.52-5.51,6.07-10.44C615.49,1574.4,615.41,1572.68,615.28,1570.67Z"/><path class="cls-3" d="M1189,1240.29c-4.43-3.27-3.27-6.77-2.63-9.7,0.76-3.46,0-5.45-2.93-7.53-5.25-3.74-9.94-8.25-15.16-12-7.71-5.6-15.89-6.45-24.34-1.37a55.84,55.84,0,0,1-5.37,2.53c-5.88,2.73-8.22,6.3-7.53,11.5,0.82,6.19,5.69,11.85,11.27,12.39a97.85,97.85,0,0,0,12-.08,7.22,7.22,0,0,1,7.24,4.13,23.93,23.93,0,0,0,6.49,7c3.15,2.36,6.5,1.5,9.61-.78,1.87-1.38,4-2.44,6-3.65l1.22,1.2c-0.64,1.36-.92,3.34-2,4-4.7,2.76-5.61,7-4.52,11.62,1.35,5.68.21,9.64-4.23,13.86-3.14,3-4.24,8.13-6,11.72,1,6.82,6,10.12,9.58,14.38,2.06,2.48,5.08,3.43,8.12,1.78,3.68-2,8.23-3.62,10.4-6.78,2-2.86,1.45-7.56,1.59-11.46,0.06-1.89-.91-3.81-1.55-6.23,8.24-4.67,14-11.73,19.64-19,2.33-3,7.14-4,10.53-5.83,3.94,2.93,7.52,5.22,10.64,8,2.9,2.6,5.45,3.35,9.4,2.08,2.33-.75,5.45,1,9,1.8a6.4,6.4,0,0,1,6.66-4c3.13,0.23,5.69.92,7.9,3.43,3.7,4.2,4.29,7,.46,11-4.1,4.23-8,8.57-14.3,10.37-9.17,2.62-13.65,9.25-13.38,18.18a16.4,16.4,0,0,0,2.25,7.71c2.82,4.65,6.36,8.85,9.37,13.39,6.67,10,9.14,20.46,2.43,31.56-3,5-7.34,8.34-13.09,8.86a222.3,222.3,0,0,1-22.4.79c-2.33,0-4.71-1.4-6.94-2.42-12.54-5.69-25.55-.15-30.48,13-0.25.67-.65,1.28-1.48,2.89-7-6.88-12.17-13.88-11.8-24.88,3.59-.84,7.34-1.74,11.1-2.6,2.18-.5,4.54-0.57,6.54-1.47,5.32-2.39,7-7.49,3.71-12.33-2.18-3.26-5.16-6-8-8.79-0.75-.75-2.54-1.42-3.3-1-3.84,1.94-6.34-.63-8.59-2.65-4.51-4-10.66-6.94-11.78-13.75a84.2,84.2,0,0,1-.91-13.15c0-1.93,1-3.84,1.45-5.79,2.56-11-2.82-18.55-14.07-19.81-1-.11-2-0.3-2.85-0.43-4-10-8.16-9.45-19.1-9.5-4.48,0-9,.89-13.43.36-12.72-1.51-18.23-6.7-22.45-18.75-2.53-7.22-3-15.14.44-22.56,3.27-7,1.8-12.52-4.86-16.62a9.84,9.84,0,0,1-1.94-2.42c2.22-4.78,4.66-9.39,6.54-14.23,3.23-8.3,6-16.77,9.15-25.11,2.56-6.78,2.92-14.64,10.14-19.18,2.12-1.33,3.41-4.25,4.64-6.66,3.6-7.06,9.34-11.3,17.12-11.33,8.67,0,17.36,1.08,26,1.77,1.48,0.12,2.94.92,4.39,0.87,13.65-.47,20.36,19.79,12.37,30.43-2.18,2.9-4.31,5.84-6.58,8.93-2.07-2.15-4.14-4.48-6.39-6.63-4.19-4-9-3.8-13.85-1.54-5.3,2.49-10.32,5.44-9.66,12.61,0.55,5.92.77,11.9,1.72,17.76,1,6.18,14,13.45,21.57,8.3,6.67-4.51,9.82-8.8,11-16.85,5.33,1.36,11.23,1.73,15.94,4.29,10.57,5.73,20.77,2,31.16.45,2.45-.36,4.94-0.52,7.38-0.94,7.83-1.35,12,4.74,11.95,10.2,0,11.22-.59,22.44-1.17,33.65-0.24,4.65-3.51,6.81-8.28,8.07-2.86-4-5.77-8-8.6-12-1.43-2-2.45-4.44-4.13-6.22-2.64-2.8-5.31-3.43-9.77-2.26-10.19,2.67-12.35,10.5-14.77,18.67C1190.08,1236.79,1189.65,1238.11,1189,1240.29Z"/><path class="cls-3" d="M326.5,1198.45c-2.56-8.17-3.15-16,2.48-24.15l14.34,6.71a39.57,39.57,0,0,1-1.33,4.29c-1.16,2.75-2.65,5.36-3.73,8.14-2.11,5.45-1,10.16,3.34,14.26s8.4,8.24,14.89,9.19c8.49,1.23,10.74.55,15.14-6.88,0.75-1.26,1.33-2.62,2.09-4.16,4.67,0.48,8-.91,11.78-4.38,5.29-4.9,11.72-9.05,20.28-4.76,3,1.52,8.27.83,11.57-.77,9.34-4.51,19.08-8.69,25.47-17.68,2.71-3.82,6-5.51,11.52-4.43,7.43,1.44,14.24-2.09,19.36-7.69,2.91-3.18,3.17-7.22,1-11.16-1.81-3.27-3.33-6.76-5.51-9.77a36.64,36.64,0,0,1-7.16-26,30.1,30.1,0,0,0-.52-8.2c-1.11-6.09-5-9.39-11.34-9.91-2.23-.18-4.46-0.34-6.68-0.54a4.53,4.53,0,0,1-1.07-.89c2.06-3.87,6-5.53,9.63-7.11,5.79-2.52,12-3,18.34-2.59,4.35,0.27,7.56,2,9.78,5.85,2.35,4.06,4.5,8.24,8.75,11,1.17,0.75,1.79,3.53,1.52,5.2-1.78,11-3.92,21.95-5.83,32.93a139.84,139.84,0,0,0-1.93,14.08c-0.67,9.62-1.52,19.27-1.35,28.88,0.12,6.41,1.9,12.79,2.87,19.19a43.59,43.59,0,0,1,.22,4.46c-4.44,1.7-8.05.38-11-2-8.24,5.79-9.21,8.81-6,17.22,1.7,4.38,1.14,7.07-3.1,9.39a72.36,72.36,0,0,1-13.74,5.81c-5,1.5-10.22,2-15.32,3.17a37.52,37.52,0,0,0-5.56,2,40.38,40.38,0,0,1-4.79,2c-15.48,3.89-30.94,8.14-47.17,5.09-4.88-.92-9.71-2.17-14.62-2.75-5.64-.67-9.93,2.69-13.8,6.12a8.39,8.39,0,0,0-2.67,8.82c0.62,2.38.52,4.94,0.76,7.69l-6.46,5.52c1.19,3.47,2.18,7.54,3.93,11.25,4.17,8.83,2.57,17.34-5.78,21.91-6.8,3.72-8.89,9.13-10.18,16.15-3,16.15-10.11,30.1-23.81,40-6.34,4.56-10.22,3.15-13-4.16-1.7-4.49-1.16-8.8.11-13.21,4-13.88-2.49-22.24-17.16-22.17-7.24,0-9.13-1.48-9-7.54,0.34-12.4.37-24.84,1.34-37.2,0.8-10.16,2.87-20.21,4.18-30.33,0.8-6.14,5-10.11,8.59-14.52,2.94-3.63,6-7.19,8.89-10.83,3.1-3.85,6.13-7.75,9-11.39,7.88,2.29,8.9,4.43,5.5,10.6-1.14,2.08-3.94,3.72-2.25,6.52s3.31,5.72,5.75,7.55c4.63,3.47,10.47,1.68,14.06-3.93,2-3.14,3-6.24,1.89-10.5C320.45,1218,321,1208.17,326.5,1198.45Z"/><path class="cls-3" d="M528.62,1093.8c-1.91-6.68,1.32-38.19,5.74-52.22,2.81,1.46,5.66,2.7,8.27,4.32,11.19,7,21.89,14.88,33.62,20.76,6.87,3.44,14.2,6.71,22.38,7.81,6.66,0.89,13.58,2.42,19.54,6.8,3.17,2.33,7.82,2.73,11.86,3.76,6,1.54,12.14,2.67,18.11,4.35a133.23,133.23,0,0,1,13.33,4.74,228.44,228.44,0,0,0,47.31,13.7c5.34,0.89,11.61,1,15.35,6.77,5.61-5.32,11.79-2.24,17-.69,9.61,2.84,19.28,2.19,28.93,2.63,14.2,0.66,28.41,1.19,42.62,1.14,6.39,0,12.77-1.55,19.15-2.44,5.91-.82,11.83-1.6,17.71-2.59,9-1.52,18-3.2,27-4.81,0.74-.13,1.46-0.38,2.19-0.47,11.34-1.34,22.7-2.51,34-4,13.76-1.83,27.49-3.93,41.24-5.91,2.22-.32,4.44-0.66,6.67-0.92,13.72-1.6,27-4.47,39.07-11.75,4.2-2.53,9.1-4,13.76-5.64,15.11-5.47,28.31-14.38,41.53-23.19,4.34-2.89,8.41-4.67,13-1.28a10.29,10.29,0,0,1,3.76,5.11,61.84,61.84,0,0,1,2.46,14.57,15.21,15.21,0,0,1-3.32,8.74c-3.35,4.3-7.48,8-11.3,11.94a10.87,10.87,0,0,0-1.65,1.52c-6.75,11-18.74,13.44-29.53,17.32a150.89,150.89,0,0,1-37,8.72c-3.84.36-7.49,2.48-11.33,3.24-10.49,2.07-21.12,3.52-31.55,5.83-8.46,1.87-16.71,4.64-25.07,7a34.06,34.06,0,0,1-7.25,1.62c-13.31.64-26.54,2.16-39.83-1.75-7-2.07-14.79-1.62-22.22-2.38q-26.67-2.76-53.33-5.6c-6.44-.67-12.88-1.28-19.32-2-8.88-.92-17.75-2.14-26.66-2.73-6-.39-12,0.2-18,0.14-11-.1-22,0.46-32.82-0.82-7.08-.84-14.07.39-21-0.77-2.1-.35-4.23-0.54-6.33-0.88a16.16,16.16,0,0,0-2.86-.69c-19.73.74-39.34-1-58.9-3.25a164.43,164.43,0,0,1-18.26-3.67c-11.36-2.65-22.74-5.23-34-8.33-6-1.64-11.67-4.23-17.43-6.56C539.86,1098.74,534.45,1096.3,528.62,1093.8Z"/><path class="cls-3" d="M725.66,1360.31c-4.28-6.42-1.38-13.57-3.49-19.83-2-6.07-3-12.49-4.78-20,2.89,0.29,4.86,0,6.39.72a71.62,71.62,0,0,0,21.56,5.54c11.6,1.38,23.11,3.5,34.61,5.59,2.12,0.39,4,2.15,7.54,4.17-4.29,1.93-6.82,3.43-9.55,4.23-11.42,3.35-23,6.2-34.33,9.85-4.38,1.41-8.23,4.45-12.34,6.74C729.58,1358.22,727.87,1359.11,725.66,1360.31Z"/><path class="cls-3" d="M1113.26,984.24l9-61.73c2.27,2.08,4.44,3.11,4.81,4.58,2.38,9.46,8.38,17.68,9,27.84,0.21,3.61-.22,6.34-2.59,8.76-2.77,2.82-5.81,5.37-8.56,8.21-1.31,1.35-2.92,3-3.17,4.67-0.65,4.28-3.6,6.17-6.58,8.21Z"/><path class="cls-3" d="M352.16,1170.61a1.41,1.41,0,0,1-.57-0.46c-0.89-5.66-1.55-11.35-2.67-17a8.11,8.11,0,0,1,3.3-8.52c4.49-3.41,9.33-6.35,14.05-9.44,2.67-1.74,4.5-.78,6.13,1.77,10.19,16,8.85,12.77-1.81,23.85C367.29,1164.3,359.57,1168.24,352.16,1170.61Z"/><path class="cls-3" d="M1181.86,1057c-3.13.38-6.29,1.26-9.39,1.07-13.29-.8-26.66-1.39-39.07-7.08a23.6,23.6,0,0,1-5.79-3.26c-1.14-1-2.26-3-2-4.32s2.14-2.81,3.5-3c6.05-.94,12.18-1.44,18.43-2.12,4,12,14.79,10.94,23.45,13.71,3.69,1.18,7.51,1.94,11.27,2.89Z"/><path class="cls-3" d="M386.7,1283.53c10.25-1.31,19.55-2.69,28.89-3.5,1.66-.15,4.51,1.72,5,3.25s-1.33,3.74-2.16,5.65a1.62,1.62,0,0,1-.58.46C410.15,1294.95,393.59,1292.27,386.7,1283.53Z"/><path class="cls-3" d="M471,1062.78l-18.66,2.46-0.66-1.71c4.26-2.4,8.3-5.45,12.85-7C468,1055.32,469,1059.2,471,1062.78Z"/><path class="cls-3" d="M730.44,1387.28l-1.64-11.2,11.35,3.66,0.2,1.77Z"/><path class="cls-3" d="M426.78,1112.24c-2.78-3.19-3.42-5.61-1.43-8.14,2.43-3.08,5.65-3.5,10.35-2.2Z"/><path class="cls-3" d="M823.53,1348.68l-10.89,4.17a8.75,8.75,0,0,1,5.73-7.71C820.62,1344.14,822.52,1345.62,823.53,1348.68Z"/><path d="M662.94,1261.45c-13.69-.1-26.53-3.34-39.14-8.65-18.7-7.87-33.59-19.84-44.55-37-7-10.87-7.73-22.07-4.66-34.34,1.94-7.71,6.91-13.09,11.57-18.81,3.61-4.44,9.23-3.7,13.87-3.13,5.81,0.72,11.32,3.83,17.48,1.86a3,3,0,0,1,2.11.55c10.11,6.49,22,7.6,33.2,10.56,8.11,2.14,16.71,2.45,25.09,3.61a41.05,41.05,0,0,1,7.33,1.32c4.58,1.53,8.17,1.28,12.14-2.33,2.09-1.9,6.48-1.38,9.86-1.73,4.15-.44,5.15,2.56,6.58,5.71,3.67,8.08,2.89,7.9,2.13,16.63-0.84,9.75-6.3,16.62-11.59,23.74-3.32,4.47-5.1,8.17-1,13.3,2.65,3.34,0,11.85-4,15.41C688.91,1257.34,676.55,1261.17,662.94,1261.45Zm-53.66-64.12c6.64,10.55,17.08,20.19,25.06,23.21,1.37,0.52,4.15.4,4.68-.43a35.78,35.78,0,0,0,5.65-15.75C632.57,1202.38,622.33,1195.58,609.28,1197.32Z"/><path d="M926.58,1203.46l-1.31,17.59c2.53-.49,4.58-0.43,6.11-1.29,2.14-1.21,3.89-3.57,6.53-1.31s5,4.67,4,8.27c-1.4,5-2.58,10.29-5.31,14.54-3.15,4.92-8,8.73-11.88,13.21-4.6,5.29-10.79,8.29-17,10.55-11.89,4.34-24,8.42-37.08,7-19.79-2.16-37.54-9.43-49.82-25.17-6.49-8.32-14-17-15.52-28.49-0.48-3.68-1.35-7.38-1.26-11.06,0.2-8.3,5.76-13.21,14-12.9,2,0.07,3.94.21,6,.33,1.13-2.91,1.55-6.2,3.38-8.23,3.21-3.56,6.69-7.06,12.69-5.6,6.64,1.61,13.25,2.18,19.84,5.18,9.13,4.16,19.54,5.44,29.31,8.29,8.47,2.47,17.24,2.1,25.78,3.46C919.25,1198.49,923,1201.63,926.58,1203.46Zm-59.65,22c5.1,5,9.17,9.19,13.56,13,1.09,1,3.26.86,4.94,0.92,8.78,0.31,16.38-3.81,24.15-7,2.93-1.19,5.21-4,8.94-7h-51.6Z"/><path class="cls-3" d="M609.28,1197.32c13-1.74,23.29,5.06,35.39,7A35.78,35.78,0,0,1,639,1220.1c-0.53.83-3.31,0.95-4.68,0.43C626.36,1217.52,615.92,1207.88,609.28,1197.32Z"/><path class="cls-3" d="M866.93,1225.45h51.6c-3.73,3-6,5.79-8.94,7-7.77,3.16-15.36,7.28-24.15,7-1.68-.06-3.85,0-4.94-0.92C876.09,1234.64,872,1230.42,866.93,1225.45Z"/></svg>