<svg id="Layer_1" data-name="Layer 1" xmlns="http://www.w3.org/2000/svg" viewBox="0 0 1535 1719.19"><defs><style>.cls-1{fill:red;}.cls-2{fill:#fff;}</style></defs><title>strong</title><path d="M791.57,1084.8c2.46-4,4.43-7.07,6.33-10.22,6.68-11.08,13.36-22.12,22.41-31.54,5.13-5.34,9.58-11.34,14.79-16.59,4-4,8.68-7.32,13.05-10.95a33.18,33.18,0,0,0,4.51-3.87c7.64-9.15,18.25-13.11,28.75-17.81,8.11-3.63,16.31-5.31,24.85-6.52,14.06-2,28.06-4.7,42.18-5.9,7-.6,14.26,1.28,21.34,2.38,9.1,1.41,18.28,2.62,27.17,4.94,8.63,2.25,16.88,5.92,25.38,8.71,10.29,3.38,20.44,7.29,29.47,13.18,15.37,10,30.64,20.2,41.39,35.85a214.67,214.67,0,0,1,12.27,21.09c1.86,3.49,4.31,6.72,5.75,10.36,2.25,5.71,4.5,11.56,5.6,17.56,2.07,11.22,4.45,22.56,4.65,33.89a349.55,349.55,0,0,1-2.42,46.85,174.62,174.62,0,0,1-9,38.41c-2.81,7.89-7,15.33-10.93,22.77-3,5.69-6.62,11.08-10.34,17.24,2.49,3,5.4,6,7.62,9.44,2.95,4.55,5.21,9.54,8,14.2,7.61,12.68,15.38,25.27,23,37.93,2.8,4.64,5.46,9.37,8,13.8a21.32,21.32,0,0,0,3.75.16c14.32-2.42,24,4.69,32.81,14.89,6.76,7.79,7.58,16.57,8.16,26.14,0.78,12.91-4.64,23.58-10.7,34-5.2,8.92-13.47,14-24.09,13.76-7.29-.15-13.25,2.82-19.68,5.74-17.64,8-35.37,16.47-55.71,13.9-1.65-.21-3.68-0.36-4.81-1.36-10.8-9.58-19.16-20.63-17.19-36.09,1-7.48,3.46-14.77,5.43-22.82-13.49-11.21-27.07-22.91-34.44-41-4.54,3.12-8.68,5.7-12.53,8.66-8.47,6.51-16.52,13.62-25.26,19.74-11.17,7.83-19.75,18-28,28.57-9.18,11.7-18.23,23.5-27.32,35.27-0.9,1.17-1.68,2.44-2.84,4.13,6.2,12.55,12.46,25.18,18.67,37.85,1.2,2.44,2.2,5,3.2,7.51,4.3,10.87,8.44,21.81,12.9,32.61,2.94,7.11,5.44,8.06,12.72,7.17a94.22,94.22,0,0,1,34.8,2.29c6.7,1.69,13.37,3.55,20.15,4.8,5.47,1,10,3.55,14.64,6.39,5.24,3.2,11.2,5.19,16.67,8,5.91,3.07,11.79,6.27,17.39,9.87,6.87,4.41,13.53,9.17,20.12,14,9.71,7.12,20.89,12.71,26,24.68a27.62,27.62,0,0,0,2.77,4.44c8.21,12,6.77,15.68-1.81,27.37a34.69,34.69,0,0,1-19.54,12.92c-12.23,3.17-24.09,7.77-36.34,10.85-23,5.78-46.13,10.31-70,9.71-9.22-.23-18.35-0.14-27.49-2.11-5.77-1.24-12-.45-17.88-1.17a98.88,98.88,0,0,1-29.37-7.76c-1.87-.85-3.25-3-4.58-4.76-1.63-2.15-3-4.52-4.58-7-5.12,1.84-10.14,1.56-14.91,4.59-8.63,5.5-17.29.66-19.66-9.5-1.39-6,.51-11.25,1.81-16.73,1.76-7.42,3.74-14.78,5.57-22.18,0.65-2.63,1.19-5.29,1.72-8,2.1-10.47,4.42-20.91,6.17-31.44,1.22-7.33,1.64-14.79,2.44-22.19a7.31,7.31,0,0,0-3.53-7.59c-5.32-3.55-10.39-7.46-15.66-11.29-6.2,4.17-8.19,10.45-10.13,16.5-3.92,12.27-7.65,24.62-10.91,37.08-1.31,5-1.15,10.37-1.67,15.57a49.91,49.91,0,0,1-.75,6.64c-1.86,7.78-6.6,10.63-13.82,7.73-6.11-2.45-13.15-3.47-17.25-9.67a3.24,3.24,0,0,0-2.52-1.34c-9.05,1.5-14.07-6.27-21.2-8.92-7.59-2.82-8.82-8.36-10.66-15-3.17-11.47-7.65-22.59-11.68-33.81-0.81-2.24-2.07-4.32-3.84-7.93-4.63,7.16-9.11,12.79-12.17,19.1-5.49,11.33-11.73,22.3-15.89,34.31-2.16,6.23-2.76,11.08,2.32,16.27,10.51,10.73,9.54,22.76,2.53,34.93-3.48,6-5.09,12.36-3.72,19.8-8.5,1.13-11.71,8.69-17.13,13.57-10.33,9.31-19.94,19.49-30.73,28.22-6.27,5.08-14.15,8.26-21.5,11.91a169.93,169.93,0,0,1-19.81,8.63c-13.62,4.7-27.29,9.42-41.22,13-9,2.35-18.61,2.54-27.86,4.14a92.35,92.35,0,0,1-36.09-1.12c-16.53-3.68-30.8-11.28-40.16-26.21a17.55,17.55,0,0,1,1.08-20.73c12.36-15.74,27.2-28.71,43.65-40.06,11.84-8.17,23-17.31,34.8-25.57,7.94-5.57,15.87-11.88,24.8-15.14,14.3-5.22,28.11-13.24,44.31-11.79,2.15,0.19,4.39-.56,7.07-0.94,1.95-5.23,4-10.52,5.89-15.89,5.95-17.07,11.7-34.21,17.77-51.24,2.48-7,5.57-13.73,8.37-20.59,1.86-4.56,3.54-9.2,5.57-13.68q5.34-11.84,11-23.52c3.55-7.32,7.29-14.54,11.32-22.55-1.77-1.85-3.35-4.05-5.43-5.6-17-12.67-34.59-24.23-53.71-33.57-12.95-6.32-25.18-14.09-37.93-20.85-10.77-5.71-21.42-11.52-31.17-18.91-4.53-3.43-4.71-3.2-8.66,1.45-10.58,12.49-21.19,24.95-31.71,37.49a24.06,24.06,0,0,0-4,6.26c-4.75,11.82-13.8,20.22-22.41,29-12,12.29-23.4,25.24-35.86,37.06-11.69,11.09-23.39,22.62-39.34,27.75-10.8,3.47-21.59,5-32.82.7-7.37-2.8-11.25-8.72-15.59-14.33a19.13,19.13,0,0,0-5.27-4.78c-8.26-5.21-16.36-10.8-18.08-21.6-0.4-2.53-1.81-3.75-4.56-4-13.66-1.13-25.13-16.76-23.81-30.47a34,34,0,0,1,2.4-8.57c5.08-13.41,12.64-25.1,24.29-33.76,4.32-3.21,9.42-2.68,14.81-2a40.22,40.22,0,0,0,2.56-5.24c5-15.56,13.7-29.26,22-43.16a60.38,60.38,0,0,0,3.7-7.32,77.1,77.1,0,0,1,8.94-15.38c4.94-6.78,8.42-14.61,12.57-22,1-1.69,2.14-3.26,3.12-4.94,2.1-3.62,4.57-7.11,6.11-11,3.48-8.71,7.65-17.25,8.27-26.85,6.75-7.33,8.1-18.27,16.7-24.49,2.71-2,4.75-5.12,6.5-8.09,2.37-4,5.36-7.32,9.6-9,3.5-1.42,4.49-3.73,3.92-7-2.36-13.57-2.24-27.21-1.65-40.91a173.1,173.1,0,0,1,9.77-51.17c3.4-9.49,9.39-18.05,14.22-27,7.34-13.63,17.7-24.59,30-33.83a6.7,6.7,0,0,0,1.62-1.55c6.93-10.54,18.37-14.68,28.74-20.35,6.12-3.35,12.44-6.43,18.25-10.25,10.26-6.74,21.56-7.93,33-5.91a199.25,199.25,0,0,1,50.92,16.54c12.11,5.74,24.75,10.51,36.37,17.09,18.48,10.48,37.52,20.34,52.7,35.74,5.19,5.27,10.82,10.2,13.74,17.32C788.45,1082.47,789.77,1083.13,791.57,1084.8Zm26.09,462.47,2.05,0.18c0.68-2.54,1.43-5.06,2-7.62,1.32-5.78,2.41-11.61,3.85-17.36,5-19.76,14.81-37.41,24.77-54.87,11-19.31,25.17-36.45,39.39-53.49,7.3-8.74,14-18,21.26-26.76,8.06-9.73,14.7-20.64,22.66-30.47,4.81-5.93,10.68-11.12,16.58-16,6.46-5.38,13.7-9.81,20.25-15.08,9.1-7.33,18.2-14.73,26.72-22.71a330,330,0,0,0,25.44-26.19c9.35-10.94,17.69-22.73,26.61-34,12.71-16.09,21.28-34.41,29.18-53.13,4.05-9.62,3.52-20,5.3-30a217.86,217.86,0,0,0,2.69-29.44c0.29-7.2.51-14.68-1.07-21.61-2.47-10.79-4.76-21.7-9.36-32-5-11.25-10.39-22.24-20-30.16-10.42-8.55-22.53-14.12-35.58-17.47-14-3.58-27.88-7.35-42-10.21a85,85,0,0,0-21.57-1.25,295.66,295.66,0,0,0-30.37,3.59c-6.56,1.07-13.38,2.27-19.31,5.07a198.51,198.51,0,0,0-26.33,15.29c-13.06,8.85-23.75,20.43-34,32.32-6.94,8.08-14,16.19-18.57,26-3.14,6.78-5.61,13.87-9,20.53-4.44,8.78-6.5,10.56-16.43,6.63a28.2,28.2,0,0,1-9.49-6.95c-9.68-10.18-23.82-15.53-30.83-28.55-5.55-3.4-6.14-8.61-4.82-14.59-7.8-5.49-15.14-11.31-23.1-16.11-18.32-11-38-19.33-57.76-27.34a178.45,178.45,0,0,0-25.41-8.18c-6.45-1.54-13.34-2.49-19.76.92q-17.45,9.27-34.86,18.6a17.76,17.76,0,0,0-3.81,2.28q-12.31,11.43-24.47,23c-9.67,9.25-14.56,21.71-21.66,32.69-2,3.12-4.49,6.31-5.29,9.81-2.61,11.39-4.83,22.89-6.68,34.43a124.06,124.06,0,0,0,.21,37.88c1,6.84,1.11,13.94,3.12,20.47a382.71,382.71,0,0,0,13.61,37.89c8.43,19.73,19.69,38,30.94,56.23,4.45,7.2,9.77,14.33,18.87,17.22,2.77,0.88,4.87,4,7.14,6.25,1.21,1.2,1.85,3.16,3.22,4,11.19,6.92,22.29,14,33.8,20.36,12.07,6.65,25.1,11.42,36.68,19.14,7.74,5.16,16.63,8.62,24.25,13.92,11.37,7.91,22.87,15.62,33.78,24.28,15.64,12.41,29.34,26.16,39.61,43.31a13.92,13.92,0,0,0,5.16,5.12c9.69,5,12.39,10.67,10.42,21-0.66,3.43-.74,7.91,1,10.68,6.09,10,7.36,21.49,11.33,32.1C811.77,1526.77,814.49,1537.11,817.66,1547.27Zm-250.1-220.13c-2.15-2.32-3.59-3.69-4.82-5.23-5.13-6.38-10.76-12.45-15.14-19.31-4.23-6.62-7-14.14-10.68-21.14-6.78-12.94-15.38-25-19.79-39.1-0.22-.7-1.37-1.1-2.54-2-3.35,6.61-6.8,12.62-9.49,19a121.49,121.49,0,0,0-5.37,16.74q-3,11.51-5.26,23.21c-0.69,3.54-1.48,6-5.85,6.23-1.48.06-3.53,2-4.17,3.57-2.52,6.19-4.55,12.57-6.81,18.87s-3.44,13.41-12.84,11.81c-0.24,0-.61.64-2,2.22a10.09,10.09,0,0,1,2.73,1c6.29,4.68,6.84,7.61,2.32,14a38.4,38.4,0,0,1-6,6.49c-5.58,4.9-11.47,9.45-16.92,14.48a40.45,40.45,0,0,0-7,8.68c-3.78,6.23-2.85,12.26,2.33,17.15a13.18,13.18,0,0,1,4.22,8.37c1.27,9.32-1,18.15-2.83,27.09-0.48,2.43-1.61,4.83-1.56,7.23,0.05,2.19,1.2,4.54,4.33,3.76,4.65-1.15,10.92-8.05,10.31-12.44-1.34-9.67,3.21-17,9-23.58,7.84-9,16-17.74,24.63-25.86,4.43-4.15,10.15-7.13,15.66-9.89,6.52-3.27,12.83,0,18.86,2.31Zm409.91,221.93c-2.24,3.09-3.57,5.59-5.5,7.48-7.53,7.38-13.07,6.05-17.85.35-5.18-6.18-10-12.64-14.92-18.88l-16.46,6.64-11,59.55a16.51,16.51,0,0,0,2.72-2.19c4.1-5.61,8-11.39,12.24-16.87,2-2.51,5.41-4.08,6.77-6.79,2.67-5.31,7.09-5.16,11.49-4.54,3.3,0.47,6.43,2.14,9.14,3.1,2,10.17.52,17.78-8.57,23.35-5.73,3.51-8.63,9.85-9.53,17.28,8.08,2.28,15.35,5.16,22.88,6.29a175.38,175.38,0,0,0,54.33-.39c6.84-1.11,13.79-1.57,20.62-2.69,9-1.48,18-3.23,27-5,4.63-.92,9.17-2.28,13.79-3.26,7.45-1.58,14.23-4.25,19.79-11.31C1060.09,1572.74,1022.55,1552.89,977.47,1549.08Zm-279.34,57.15c-1.5,3-2.73,5.36-3.94,7.78-4.9,9.77-19,13.12-27.37,3.33-1.61-1.89-2.82-4.11-4.33-6.09-2-2.66-4.13-5.23-5.81-7.34-6.72,1.41-12.79,1.55-17.78,4A311.68,311.68,0,0,0,606.38,1626c-10.21,6.54-19.55,14.41-29.51,21.35-10.42,7.25-20.42,14.95-29,24.34a23.42,23.42,0,0,0-3.12,4.16c-1.14,2-.82,4,1.35,5.09,4.89,2.34,9.73,5.68,14.89,6.4,13.86,1.93,27.78.46,41.49-2.2,4.6-.89,8.93-3.31,13.54-4,9.73-1.49,18.52-5.38,27.45-9.18,9.53-4.05,19.33-7.44,29-11.28,12.72-5.07,25.63-10,31.93-23.71,5.82-3.61,7.8-10.12,11.26-15.43,3.7-5.68,6.83-11.85,8.14-18.62-3.09-2.29-5.86-2.28-7.27.8-2.42,5.29-7,3.78-10.91,3.92C703.38,1607.68,701.18,1606.83,698.13,1606.23ZM1082,1405.37c4.56-.23,8.33.53,11.21-0.73,9.27-4.06,18.17-8.93,27.29-13.34,4.88-2.36,9.77-4.93,14.94-6.4,3.81-1.08,7.46-.65,9.32-5.64,1.35-3.63,4.11-6.61,3.63-11-0.8-7.38-4.18-11-11.52-11-6.38,0-12.78-1.45-19.2,1-2.47.93-5.74-.27-7.54-0.41-4.66-7-2.63-12.16,1.62-16.22l-41.62-63.89a26.87,26.87,0,0,1-1.89,3.61c-6.49,8.15-12.94,16.33-19.59,24.36-5.07,6.12-5.56,12.46-1.64,19.22,3.1,5.35,6.14,10.75,9.51,15.93,5.63,8.67,10.52,17.94,22.25,20.44,3.73,0.8,8.14,4,8.36,8.59,0.37,7.65.9,15.41-2.08,22.9C1083.64,1396.38,1083.19,1400.35,1082,1405.37Zm-386.6,191.52c1.46-8.28,4.21-15.17,10.16-20.8,2.27-2.15,2.88-6.09,4.16-9.25,0.54-1.35.83-2.8,1.26-4.19,1.08-3.51,2.14-7,3.27-10.51a38.83,38.83,0,0,1,2.25-6.06c2.84-5.41,6-10.66,8.79-16.1,5.75-11.16,11.18-22.46,18.81-32.55,4.31-5.7,8.28-11.66,12.18-17.65,0.81-1.24,1.3-3.46.74-4.68-2.65-5.78-5.71-11.37-8.9-17.56a20.57,20.57,0,0,0-2.8,2.61c-6.48,9.86-9.53,21.38-15.51,31.56s-7.44,22.47-14.24,32.38a5.44,5.44,0,0,0-.82,2.08c-1.87,10.56-8,19.58-10,30.32-2.13,11.34-7.17,22.15-11.14,33.11C692.65,1592.2,692.26,1594.32,695.41,1596.88Zm211.38-121.52c1.46-6.49-1.93-10.12-5-14.39a53.28,53.28,0,0,0-13.18,18.78l9,5C899.47,1479.93,900.77,1475.31,906.79,1475.36Z"/><path class="cls-1" d="M817.66,1547.27c-3.16-10.17-5.89-20.5-9.61-30.46-4-10.62-5.24-22.13-11.33-32.1-1.69-2.76-1.61-7.25-1-10.68,2-10.28-.73-16-10.42-21a13.92,13.92,0,0,1-5.16-5.12c-10.27-17.15-24-30.9-39.61-43.31-10.91-8.66-22.41-16.37-33.78-24.28-7.62-5.3-16.51-8.76-24.25-13.92-11.58-7.72-24.61-12.49-36.68-19.14-11.51-6.34-22.62-13.44-33.8-20.36-1.37-.85-2-2.8-3.22-4-2.27-2.24-4.37-5.37-7.14-6.25-9.1-2.89-14.42-10-18.87-17.22-11.25-18.2-22.52-36.5-30.94-56.23a382.71,382.71,0,0,1-13.61-37.89c-2-6.53-2.11-13.63-3.12-20.47a124.06,124.06,0,0,1-.21-37.88c1.85-11.54,4.06-23,6.68-34.43,0.8-3.5,3.27-6.69,5.29-9.81,7.11-11,12-23.43,21.66-32.69q12.13-11.62,24.47-23a17.76,17.76,0,0,1,3.81-2.28q17.42-9.32,34.86-18.6c6.42-3.41,13.31-2.46,19.76-.92a178.45,178.45,0,0,1,25.41,8.18c19.77,8,39.45,16.31,57.76,27.34,8,4.79,15.3,10.62,23.1,16.11-1.32,6-.74,11.19,4.82,14.59,7,13,21.16,18.37,30.83,28.55a28.2,28.2,0,0,0,9.49,6.95c9.93,3.92,12,2.15,16.43-6.63,3.37-6.65,5.84-13.75,9-20.53,4.54-9.81,11.63-17.92,18.57-26,10.22-11.89,20.9-23.48,34-32.32a198.51,198.51,0,0,1,26.33-15.29c5.92-2.8,12.75-4,19.31-5.07a295.66,295.66,0,0,1,30.37-3.59,85,85,0,0,1,21.57,1.25c14.11,2.86,28,6.63,42,10.21,13,3.35,25.16,8.92,35.58,17.47,9.66,7.93,15,18.92,20,30.16,4.59,10.29,6.89,21.19,9.36,32,1.59,6.93,1.36,14.41,1.07,21.61a217.86,217.86,0,0,1-2.69,29.44c-1.79,10-1.25,20.43-5.3,30-7.89,18.72-16.47,37-29.18,53.13-8.93,11.3-17.26,23.1-26.61,34a330,330,0,0,1-25.44,26.19c-8.52,8-17.62,15.38-26.72,22.71-6.55,5.27-13.79,9.71-20.25,15.08-5.9,4.91-11.77,10.1-16.58,16-8,9.83-14.6,20.73-22.66,30.47-7.28,8.79-14,18-21.26,26.76-14.23,17-28.37,34.18-39.39,53.49-10,17.46-19.81,35.11-24.77,54.87-1.44,5.75-2.53,11.58-3.85,17.36-0.59,2.56-1.34,5.08-2,7.62Zm90.92-196.52c4-6.66,1.42-13.18-.12-19.56-0.44-1.81-2.44-3.69-4.21-4.62-2.36-1.24-5.25-1.42-7.79-2.38-1.77-.67-4-1.46-4.88-2.9-5.2-8.81-13.54-13.95-22.16-18.2-18.74-9.25-37.67-18.19-56.9-26.39-13.88-5.92-27.43-12.45-40.87-19.22-4.9-2.47-9.26-5.71-15.23-5-1.8.2-3.86-.87-5.63-1.71-4.84-2.31-9.19-1.62-13.22,1.75-1.52,1.27-3,2.58-4.3,3.7-0.39,3.73.11,7.57-1.27,10.53-3.81,8.17-2.86,17-4.66,25.47-2,9.47-3.47,19.05-5.39,28.54s-4.34,18.89-6.15,28.4c-1.6,8.38.74,13,8.43,17.13,2.85,1.55,4.56,3.35,5.3,6.64a11.54,11.54,0,0,0,3.63,6.05,86.3,86.3,0,0,0,10.56,6.82c9.13,5.44,18.32,5.18,27.75.5,6.4-3.18,13-6.05,19.64-8.62,8.33-3.21,17.11-5.38,25.22-9,15-6.8,30.51-11.62,46.46-15.72,10.73-2.75,21.07-2.64,31.52-1.12C899.45,1352.53,904.06,1352.44,908.57,1350.76Zm-24.2-101.55c6.3-3.43,12-7.12,19.17-5.88a4,4,0,0,0,2.88-.62c4.47-3.67,9-2.09,13.36-.09,4.81,2.22,9.17,1.38,13.49-1,10.88-5.92,21.38-12.08,30-21.51,8-8.8,16-17.36,22.47-27.52,7.53-11.9,9.14-23.1.68-35.19a23,23,0,0,1-4-11.67c-0.21-5.55-2.64-9.41-6.19-13s-7.48-4.31-12.21-2.64a70.77,70.77,0,0,1-9.23,2.35c-3.41.71-6.94,1-10.29,1.86-4.55,1.23-8.89,3.28-13.47,4.3a61.59,61.59,0,0,0-18.6,7.14,97.93,97.93,0,0,1-17.59,7.71c-6,2.14-12.4,3.35-18.5,5.33-9.54,3.11-11,6.76-7.4,16.22a33.06,33.06,0,0,1,2,8.59c0.91,9.63,1,19.37,2.54,28.88a18.29,18.29,0,0,1-3.49,14.64c-4.41,6.12-4.11,9.93,1.91,14.35C875.76,1244.36,880.17,1246.64,884.38,1249.21Zm-162.54-49c2.15-2.34,4.14-4.23,5.81-6.36,4.18-5.34,4-8.4.53-14.24-3.76-6.25-8.77-9.3-16.18-7.83a12.94,12.94,0,0,1-11.08-2.62,184.11,184.11,0,0,0-21.69-14.27,221,221,0,0,0-42.69-17.61c-7.13-2.16-14.64-3.28-22-.15-7.11,3-8.8,7-6.06,14.18,0.76,2,1.5,4.39,1.12,6.38-3.44,18,4.53,32.32,14.68,45.91,3,4,5.79,8.29,9.61,11.23,7.84,6,15.21,12.59,24,17.58,16.05,9.09,31.84,8.69,48,1.71,9.65-4.17,17.52-10.18,16.63-22.43a3.86,3.86,0,0,1,.45-2.18C725.06,1206,724.14,1202.88,721.84,1200.19Zm-85-98.71-0.19,1a27.38,27.38,0,0,0-5.23,0c-9.35,1.85-12,6.19-7.82,16.41a8.41,8.41,0,0,0,2.79,3.48c4.42,3.14,8.68,6.74,13.56,8.94,6.32,2.84,13,5.44,19.81,6.47,15.69,2.39,29.55,10.11,44.63,14.23,9.54,2.61,18.5,7.23,27.89,10.45a160.33,160.33,0,0,0,20.9,5.64,9.36,9.36,0,0,0,11.24-6.41c2.66-8,1.88-14.4-2.86-17a135.43,135.43,0,0,0-18.25-8.59c-9.95-3.71-20.14-6.78-30.21-10.15-6.59-2.2-13.25-4.24-19.74-6.73-8.07-3.1-16-6.7-24-9.87a67.76,67.76,0,0,0-9.32-2.56C652.32,1105,644.58,1103.25,636.85,1101.48Zm356.65-20.9a5.69,5.69,0,0,0,0-2.11c-2-7-9.68-12.14-16.94-9.84-12.49,4-25,8.33-36.75,14-10.17,4.87-19.32,11.85-29,17.73-8.26,5-16.65,9.82-25,14.65-3.63,2.09-6.65,4.51-6.27,9.26s1.64,8.79,6.4,11a25.55,25.55,0,0,1,5.79,3.31c6.47,5.38,14,4.69,20.44,1.67,10.47-4.93,20.19-11.45,30.19-17.37,3.42-2,6.61-4.43,10.08-6.35,9.1-5,18.67-9.26,27.33-14.91C986.73,1097,992.52,1090.63,993.5,1080.58Z"/><path class="cls-2" d="M567.56,1327.15l-44.72,53.64c-6-2.33-12.34-5.59-18.86-2.31-5.51,2.76-11.23,5.74-15.66,9.89-8.68,8.13-16.79,16.91-24.63,25.86-5.77,6.6-10.32,13.92-9,23.58,0.61,4.39-5.66,11.29-10.31,12.44-3.14.78-4.28-1.57-4.33-3.76-0.06-2.39,1.07-4.8,1.56-7.23,1.78-8.93,4.1-17.77,2.83-27.09a13.18,13.18,0,0,0-4.22-8.37c-5.18-4.89-6.12-10.92-2.33-17.15a40.45,40.45,0,0,1,7-8.68c5.45-5,11.34-9.58,16.92-14.48a38.4,38.4,0,0,0,6-6.49c4.53-6.39,4-9.32-2.32-14a10.09,10.09,0,0,0-2.73-1c1.43-1.59,1.8-2.26,2-2.22,9.4,1.6,10.63-5.66,12.84-11.81s4.29-12.68,6.81-18.87c0.63-1.56,2.69-3.51,4.17-3.57,4.37-.18,5.16-2.69,5.85-6.23q2.27-11.68,5.26-23.21a121.49,121.49,0,0,1,5.37-16.74c2.68-6.34,6.14-12.36,9.49-19,1.17,0.88,2.32,1.28,2.54,2,4.41,14.15,13,26.17,19.79,39.1,3.67,7,6.45,14.52,10.68,21.14,4.38,6.86,10,12.93,15.14,19.31C564,1323.45,565.41,1324.83,567.56,1327.15Z"/><path class="cls-2" d="M977.47,1549.08c45.08,3.81,82.62,23.66,116.88,52.11-5.56,7.06-12.34,9.73-19.79,11.31-4.62,1-9.16,2.34-13.79,3.26-9,1.79-17.94,3.54-27,5-6.84,1.12-13.78,1.58-20.62,2.69a175.38,175.38,0,0,1-54.33.39c-7.53-1.13-14.79-4-22.88-6.29,0.9-7.43,3.8-13.77,9.53-17.28,9.08-5.57,10.53-13.18,8.57-23.35-2.71-1-5.84-2.64-9.14-3.1-4.41-.62-8.82-0.77-11.49,4.54-1.36,2.71-4.82,4.28-6.77,6.79-4.26,5.48-8.14,11.26-12.24,16.87a16.51,16.51,0,0,1-2.72,2.19l11-59.55,16.46-6.64c4.9,6.24,9.74,12.7,14.92,18.88,4.78,5.7,10.32,7,17.85-.35C973.89,1554.67,975.23,1552.17,977.47,1549.08Z"/><path class="cls-2" d="M698.13,1606.23c3,0.6,5.25,1.46,7.41,1.38,3.95-.14,8.49,1.37,10.91-3.92,1.41-3.08,4.17-3.09,7.27-.8-1.32,6.76-4.44,12.94-8.14,18.62-3.46,5.31-5.44,11.82-11.26,15.43-6.31,13.74-19.21,18.64-31.93,23.71-9.62,3.84-19.43,7.22-29,11.28-8.93,3.8-17.71,7.69-27.45,9.18-4.61.71-8.94,3.12-13.54,4-13.71,2.66-27.62,4.13-41.49,2.2-5.17-.72-10-4.06-14.89-6.4-2.17-1-2.49-3.08-1.35-5.09a23.42,23.42,0,0,1,3.12-4.16c8.6-9.39,18.6-17.08,29-24.34,10-6.94,19.31-14.81,29.51-21.35a311.68,311.68,0,0,1,32.54-18.12c5-2.41,11.06-2.55,17.78-4,1.68,2.11,3.8,4.69,5.81,7.34,1.5,2,2.72,4.2,4.33,6.09,8.35,9.79,22.46,6.44,27.37-3.33C695.41,1611.59,696.64,1609.18,698.13,1606.23Z"/><path class="cls-2" d="M1082,1405.37c1.18-5,1.63-9,3.06-12.56,3-7.49,2.45-15.25,2.08-22.9-0.22-4.61-4.63-7.79-8.36-8.59-11.73-2.5-16.61-11.78-22.25-20.44-3.37-5.18-6.41-10.58-9.51-15.93-3.92-6.76-3.43-13.1,1.64-19.22,6.65-8,13.09-16.21,19.59-24.36a26.87,26.87,0,0,0,1.89-3.61l41.62,63.89c-4.25,4.06-6.29,9.21-1.62,16.22,1.8,0.14,5.07,1.35,7.54.41,6.42-2.43,12.82-.95,19.2-1,7.34,0,10.71,3.57,11.52,11,0.48,4.4-2.28,7.37-3.63,11-1.86,5-5.51,4.57-9.32,5.64-5.17,1.46-10.06,4-14.94,6.4-9.12,4.4-18,9.28-27.29,13.34C1090.34,1405.9,1086.57,1405.14,1082,1405.37Z"/><path class="cls-2" d="M695.41,1596.88c-3.15-2.56-2.75-4.68-1.81-7.28,4-11,9-21.77,11.14-33.11,2-10.74,8.15-19.76,10-30.32a5.44,5.44,0,0,1,.82-2.08c6.81-9.91,8.27-22.22,14.24-32.38s9-21.7,15.51-31.56a20.57,20.57,0,0,1,2.8-2.61c3.19,6.2,6.25,11.79,8.9,17.56,0.56,1.22.07,3.44-.74,4.68-3.9,6-7.87,12-12.18,17.65-7.63,10.09-13.07,21.39-18.81,32.55-2.8,5.43-6,10.68-8.79,16.1a38.83,38.83,0,0,0-2.25,6.06c-1.14,3.49-2.19,7-3.27,10.51-0.43,1.4-.71,2.85-1.26,4.19-1.27,3.16-1.89,7.1-4.16,9.25C699.62,1581.71,696.87,1588.61,695.41,1596.88Z"/><path class="cls-2" d="M906.79,1475.36c-6-.06-7.32,4.56-9.17,9.4l-9-5A53.28,53.28,0,0,1,901.78,1461C904.86,1465.25,908.25,1468.87,906.79,1475.36Z"/><path d="M908.57,1350.76c-4.52,1.68-9.12,1.77-14.27,1-10.45-1.52-20.78-1.63-31.52,1.12-16,4.09-31.46,8.92-46.46,15.72-8.11,3.67-16.88,5.84-25.22,9-6.67,2.57-13.24,5.44-19.64,8.62-9.43,4.68-18.61,4.94-27.75-.5a86.3,86.3,0,0,1-10.56-6.82,11.54,11.54,0,0,1-3.63-6.05c-0.73-3.29-2.45-5.09-5.3-6.64-7.69-4.18-10-8.75-8.43-17.13,1.82-9.51,4.23-18.91,6.15-28.4s3.37-19.08,5.39-28.54c1.8-8.43.85-17.3,4.66-25.47,1.38-3,.88-6.8,1.27-10.53,1.3-1.12,2.78-2.43,4.3-3.7,4-3.37,8.38-4.06,13.22-1.75,1.77,0.84,3.83,1.91,5.63,1.71,6-.67,10.33,2.57,15.23,5,13.44,6.77,27,13.3,40.87,19.22,19.22,8.2,38.15,17.14,56.9,26.39,8.62,4.26,17,9.39,22.16,18.2,0.85,1.44,3.11,2.24,4.88,2.9,2.54,1,5.43,1.14,7.79,2.38,1.77,0.93,3.77,2.81,4.21,4.62C910,1337.58,912.56,1344.1,908.57,1350.76Zm-68.65-30.82c-3.79-.91-6.67-0.76-8.27-2.13-6.57-5.61-14.92-7.47-22.34-11.23-11.86-6-24.89-9.53-36.25-16.69-3.59-2.26-6.1-1-7,3.19-1.62,7.37.13,11.71,7.63,14.81,10,4.14,20,8.4,30.82,10.71,5.79,1.24,11.86,1.69,17.69,4C827.08,1324.5,833.72,1326.37,839.93,1319.94Zm-81.8,27.32c5.21-1.08,10.16-1,13.61-3.16s9.44,0.14,11.16-6.28l-22.1-8.08c-1,4.33-1.92,7.91-2.62,11.53C757.89,1342.69,758.12,1344.21,758.12,1347.25Z"/><path d="M884.38,1249.21c-4.21-2.56-8.62-4.85-12.58-7.75-6-4.42-6.32-8.23-1.91-14.35a18.29,18.29,0,0,0,3.49-14.64c-1.56-9.51-1.63-19.26-2.54-28.88a33.06,33.06,0,0,0-2-8.59c-3.61-9.45-2.14-13.11,7.4-16.22,6.1-2,12.47-3.19,18.5-5.33a97.93,97.93,0,0,0,17.59-7.71,61.59,61.59,0,0,1,18.6-7.14c4.58-1,8.93-3.07,13.47-4.3,3.35-.91,6.88-1.15,10.29-1.86a70.77,70.77,0,0,0,9.23-2.35c4.73-1.67,8.67-1,12.21,2.64s6,7.49,6.19,13a23,23,0,0,0,4,11.67c8.46,12.09,6.85,23.29-.68,35.19-6.43,10.16-14.45,18.71-22.47,27.52-8.59,9.44-19.09,15.59-30,21.51-4.32,2.35-8.68,3.2-13.49,1-4.33-2-8.88-3.59-13.36.09a4,4,0,0,1-2.88.62C896.4,1242.08,890.68,1245.78,884.38,1249.21Zm54.23-53.15c9.83-6.65,13.55-16.51,18.32-25.52a6.67,6.67,0,0,0-.84-8.15c-12,4-24.06,8.11-35.09,15.92C929.56,1182,936.44,1186.22,938.61,1196.06Z"/><path d="M721.84,1200.19c2.3,2.69,3.22,5.83,1.08,9.29a3.86,3.86,0,0,0-.45,2.18c0.89,12.25-7,18.26-16.63,22.43-16.15,7-31.94,7.38-48-1.71-8.81-5-16.17-11.54-24-17.58-3.82-2.94-6.66-7.28-9.61-11.23-10.15-13.59-18.12-27.89-14.68-45.91,0.38-2-.36-4.38-1.12-6.38-2.74-7.2-1.05-11.18,6.06-14.18,7.4-3.13,14.92-2,22,.15a221,221,0,0,1,42.69,17.61,184.11,184.11,0,0,1,21.69,14.27,12.94,12.94,0,0,0,11.08,2.62c7.41-1.47,12.42,1.58,16.18,7.83,3.52,5.84,3.65,8.9-.53,14.24C726,1196,724,1197.85,721.84,1200.19Zm-81.49-30.29c2.87,12.28,6.62,21.71,16.89,28.56-0.17-8.42,6.55-11.81,11.82-17C659,1178.22,651.25,1172.66,640.35,1169.9Z"/><path d="M636.85,1101.48c7.73,1.77,15.47,3.5,23.19,5.32a67.76,67.76,0,0,1,9.32,2.56c8,3.17,15.93,6.77,24,9.87,6.48,2.49,13.14,4.53,19.74,6.73,10.08,3.37,20.27,6.44,30.21,10.15a135.43,135.43,0,0,1,18.25,8.59c4.74,2.63,5.52,9,2.86,17a9.36,9.36,0,0,1-11.24,6.41,160.33,160.33,0,0,1-20.9-5.64c-9.39-3.22-18.36-7.84-27.89-10.45-15.08-4.12-28.94-11.85-44.63-14.23-6.79-1-13.5-3.63-19.81-6.47-4.88-2.19-9.14-5.79-13.56-8.94a8.41,8.41,0,0,1-2.79-3.48c-4.17-10.22-1.53-14.56,7.82-16.41a27.38,27.38,0,0,1,5.23,0Z"/><path d="M993.5,1080.58c-1,10.05-6.78,16.39-13.83,21-8.66,5.65-18.23,9.91-27.33,14.91-3.47,1.91-6.66,4.32-10.08,6.35-10,5.92-19.72,12.44-30.19,17.37-6.41,3-14,3.71-20.44-1.67a25.55,25.55,0,0,0-5.79-3.31c-4.76-2.17-6-6.29-6.4-11s2.64-7.17,6.27-9.26c8.37-4.83,16.76-9.64,25-14.65,9.7-5.88,18.85-12.86,29-17.73,11.79-5.65,24.27-10,36.75-14,7.25-2.3,14.93,2.88,16.94,9.84A5.69,5.69,0,0,1,993.5,1080.58Z"/><path class="cls-2" d="M839.93,1319.94c-6.21,6.43-12.85,4.57-17.74,2.64-5.82-2.29-11.9-2.74-17.69-4-10.83-2.32-20.79-6.57-30.82-10.71-7.49-3.09-9.24-7.44-7.63-14.81,0.92-4.2,3.43-5.46,7-3.19,11.36,7.16,24.39,10.67,36.25,16.69,7.42,3.77,15.77,5.62,22.34,11.23C833.25,1319.17,836.14,1319,839.93,1319.94Z"/><path class="cls-2" d="M758.12,1347.25c0-3-.23-4.56,0-6,0.7-3.62,1.62-7.2,2.62-11.53l22.1,8.08c-1.72,6.42-7.7,4.07-11.16,6.28S763.33,1346.17,758.12,1347.25Z"/><path class="cls-2" d="M938.61,1196.06c-2.17-9.84-9.06-14.09-17.61-17.75,11-7.81,23-11.87,35.09-15.92a6.67,6.67,0,0,1,.84,8.15C952.16,1179.55,948.44,1189.41,938.61,1196.06Z"/><path class="cls-2" d="M640.35,1169.9c10.91,2.76,18.64,8.32,28.71,11.55-5.27,5.2-12,8.59-11.82,17C647,1191.61,643.22,1182.18,640.35,1169.9Z"/></svg>